<?xml version="1.0" encoding="utf-8"?>
<!-- Generator: Adobe Illustrator 16.0.0, SVG Export Plug-In . SVG Version: 6.00 Build 0)  -->
<!DOCTYPE svg PUBLIC "-//W3C//DTD SVG 1.1//EN" "http://www.w3.org/Graphics/SVG/1.1/DTD/svg11.dtd">
<svg version="1.1" id="Layer_1" xmlns="http://www.w3.org/2000/svg" xmlns:xlink="http://www.w3.org/1999/xlink" x="0px" y="0px"
	 width="48px" height="48px" viewBox="0 0 48 48" enable-background="new 0 0 48 48" xml:space="preserve">
<g>
	<path d="M44.985,12.341h-6.175V7.303c0-3.244-2.555-5.897-5.798-5.897H17.116c-3.243,0-5.896,2.654-5.896,5.897v5.038H5.09
		c-1.414,0-2.59,1.149-2.59,2.563v5.565c0,1.414,1.176,2.594,2.59,2.594h0.763l1.274,6.983c0.359-0.044,0.725-0.076,1.096-0.076
		c4.951,0,8.98,4.029,8.98,8.98c0,0.529-0.048,1.052-0.135,1.552H38.96c1.236,0,2.296-0.872,2.518-2.088l2.798-15.352h0.71
		c1.413,0,2.545-1.181,2.545-2.594v-5.565C47.53,13.49,46.398,12.341,44.985,12.341z M16.01,7.303c0-0.619,0.487-1.108,1.106-1.108
		h15.896c0.618,0,1.08,0.489,1.08,1.108v5.038H16.01V7.303z M19.512,31.346c0,0.984-0.767,1.781-1.75,1.781
		c-0.984,0-1.752-0.797-1.752-1.781v-9.776c0-0.984,0.768-1.781,1.752-1.781c0.983,0,1.75,0.797,1.75,1.781V31.346z M26.874,31.346
		c0,0.984-0.803,1.781-1.786,1.781S23.3,32.33,23.3,31.346v-9.776c0-0.984,0.805-1.781,1.788-1.781s1.786,0.797,1.786,1.781V31.346z
		 M34.165,31.346c0,0.984-0.804,1.781-1.787,1.781s-1.787-0.797-1.787-1.781v-9.776c0-0.984,0.804-1.781,1.787-1.781
		s1.787,0.797,1.787,1.781V31.346z"/>
	<path d="M8.223,31.289c-4.228,0-7.652,3.426-7.652,7.653c0,4.227,3.425,7.653,7.652,7.653c4.226,0,7.651-3.426,7.651-7.653
		C15.874,34.714,12.448,31.289,8.223,31.289z M12.578,38.826c0,0.531-0.431,0.962-0.962,0.962H9.148v2.469
		c0,0.531-0.431,0.962-0.962,0.962H8.181c-0.531,0-0.962-0.431-0.962-0.962v-2.469h-2.47c-0.531,0-0.962-0.431-0.962-0.962V38.82
		c0-0.531,0.431-0.962,0.962-0.962h2.47v-2.397c0-0.531,0.431-0.962,0.962-0.962h0.006c0.531,0,0.962,0.431,0.962,0.962v2.397h2.468
		c0.531,0,0.962,0.431,0.962,0.962V38.826z"/>
</g>
</svg>
