<?xml version="1.0" encoding="utf-8"?>
<!-- Generator: Adobe Illustrator 16.0.0, SVG Export Plug-In . SVG Version: 6.00 Build 0)  -->
<!DOCTYPE svg PUBLIC "-//W3C//DTD SVG 1.1//EN" "http://www.w3.org/Graphics/SVG/1.1/DTD/svg11.dtd">
<svg version="1.1" id="Layer_1" xmlns="http://www.w3.org/2000/svg" xmlns:xlink="http://www.w3.org/1999/xlink" x="0px" y="0px"
	 width="48px" height="48px" viewBox="0 0 48 48" enable-background="new 0 0 48 48" xml:space="preserve">
<g>
	<path d="M24.758,9.79c-0.487,0.795-0.807,1.543-1.01,2.159c-2.39,0.189-4.183,0.964-4.183,1.895c0,1.072,2.378,1.94,5.311,1.94
		s5.311-0.869,5.311-1.94c0-0.806-1.344-1.496-3.256-1.79c0.822-1.699,2.833-4.166,7.74-5.233c0.81-0.176,1.323-0.975,1.147-1.785
		S34.844,3.71,34.034,3.89c-2.77,0.602-4.813,1.596-6.331,2.721c0.039-1-0.438-2.137-1.67-3.368C23.784,0.993,18.53,0.64,18.53,0.64
		s0.354,5.254,2.603,7.503C22.471,9.481,23.697,9.928,24.758,9.79z"/>
	<path d="M29.973,10.568c-0.224,0.191-0.433,0.383-0.613,0.577c1.502,0.604,2.327,1.541,2.327,2.699c0,2.376-3.421,3.44-6.811,3.44
		s-6.811-1.064-6.811-3.44c0-1.536,1.439-2.671,3.929-3.168c-0.112-0.061-0.223-0.149-0.335-0.218
		c-9.235,0.326-16.296,2.421-16.296,11.618c0,10.207,6.23,25.285,19.397,25.285c12.965,0,19.396-15.078,19.396-25.285
		C44.157,13.592,38.15,11.152,29.973,10.568z M11.194,30.382c-0.843,0.084-1.593-0.53-1.677-1.372
		c-0.085-0.842,0.529-1.593,1.371-1.677c0.843-0.084,1.594,0.53,1.678,1.372S12.037,30.297,11.194,30.382z M12.416,18.711
		c-0.914,1.421-1.166,3.345-0.792,6.056c0.113,0.821-0.46,1.578-1.281,1.691c-0.019,0.002-0.037,0.004-0.056,0.006
		c-0.799,0.08-1.525-0.486-1.635-1.287c-0.478-3.461-0.084-6.032,1.239-8.089c0.448-0.697,1.376-0.899,2.073-0.45
		C12.661,17.086,12.864,18.014,12.416,18.711z"/>
</g>
</svg>
