<?xml version="1.0" encoding="utf-8"?>
<!-- Generator: Adobe Illustrator 16.0.0, SVG Export Plug-In . SVG Version: 6.00 Build 0)  -->
<!DOCTYPE svg PUBLIC "-//W3C//DTD SVG 1.1//EN" "http://www.w3.org/Graphics/SVG/1.1/DTD/svg11.dtd">
<svg version="1.1" id="Layer_1" xmlns="http://www.w3.org/2000/svg" xmlns:xlink="http://www.w3.org/1999/xlink" x="0px" y="0px"
	 width="48px" height="48px" viewBox="0 0 48 48" enable-background="new 0 0 48 48" xml:space="preserve">
<path d="M46.74,26.693c-0.546-1.058-1.647-1.713-2.837-1.691c-8.433,0.16-13.262,4.646-21.188,2.549
	c-10.21-2.704-12.521-9.645-13.019-10.558c-1.481-2.72-3.373-2.131-4.126-3.399c-0.124-0.238-0.874-1.856-1.375-2.94
	c-0.255-0.551-0.899-0.801-1.458-0.565l-1.52,0.64c-0.5,0.21-0.777,0.746-0.662,1.276c0.247,1.135,0.638,2.976,0.674,3.422
	c0.037,0.411-0.574,1.869-0.66,3.531c-0.071,1.363,0.281,2.972,1.018,4.313c0.662,1.376,5.923,12.655,17.586,14.8
	c16.104,2.961,24.666-4.224,27.411-8.346c0.597-0.896,0.662-2.049,0.169-3.005L46.74,26.693z M6.912,27.622
	c-0.358,0-0.715-0.149-0.968-0.442c-1.839-2.118-3.479-5.59-3.547-5.737c-0.304-0.645-0.029-1.414,0.613-1.718
	c0.639-0.305,1.407-0.03,1.71,0.617c0.016,0.033,1.56,3.296,3.16,5.142c0.465,0.538,0.412,1.353-0.126,1.821
	C7.512,27.518,7.211,27.622,6.912,27.622z M9.113,30.375c-0.721,0-1.308-0.588-1.308-1.314c0-0.727,0.587-1.314,1.308-1.314
	c0.724,0,1.31,0.588,1.31,1.314C10.423,29.787,9.837,30.375,9.113,30.375z"/>
</svg>
