<?xml version="1.0" encoding="utf-8"?>
<!-- Generator: Adobe Illustrator 16.0.0, SVG Export Plug-In . SVG Version: 6.00 Build 0)  -->
<!DOCTYPE svg PUBLIC "-//W3C//DTD SVG 1.1//EN" "http://www.w3.org/Graphics/SVG/1.1/DTD/svg11.dtd">
<svg version="1.1" id="Layer_1" xmlns="http://www.w3.org/2000/svg" xmlns:xlink="http://www.w3.org/1999/xlink" x="0px" y="0px"
	 width="48px" height="48px" viewBox="0 0 48 48" enable-background="new 0 0 48 48" xml:space="preserve">
<g>
	<path d="M40.029,17.271c-0.013-0.008-0.025-0.017-0.038-0.025c-0.29-0.191-0.664-0.202-0.964-0.026
		c-0.3,0.176-0.474,0.507-0.447,0.854c0.21,2.857-0.008,5.423-0.225,7.063c-0.021,0.151-0.147,0.266-0.3,0.271
		s-0.286-0.102-0.316-0.251c-0.872-4.412-2.584-8.213-3.657-10.305c-0.116-0.226-0.32-0.393-0.565-0.462
		c-2.828-0.793-5.451-1.07-7.081-1.158c-0.287-0.016-0.565,0.105-0.75,0.327c-0.184,0.221-0.253,0.517-0.186,0.797
		c0.995,4.145,0.73,8.72,0.49,11.044c-0.016,0.149-0.134,0.266-0.283,0.279c-0.148,0.014-0.286-0.081-0.327-0.224
		c-0.784-2.719-2.561-8.494-4.32-11.5c-0.179-0.306-0.52-0.481-0.872-0.448C17.8,13.73,15.504,14.073,13.458,15
		c-0.001,0-0.001,0-0.002,0c-0.405,0-0.646,0.435-0.579,0.863c0.596,3.762,0.32,7.263,0.045,9.34
		c-0.021,0.152-0.146,0.233-0.3,0.238c-0.152,0.005-0.286-0.118-0.316-0.268c-0.563-2.852-1.48-5.458-2.348-7.506
		c-0.126-0.298-0.374-0.531-0.682-0.633c-0.307-0.103-0.643-0.07-0.923,0.093c-5.509,3.197-7.968,6.938-7.968,10.757
		c0,8.124,10.598,9.087,23.671,9.087s23.671-0.963,23.671-9.087C47.728,24.383,45.544,20.938,40.029,17.271z"/>
</g>
</svg>
