<?xml version="1.0" encoding="utf-8"?>
<!-- Generator: Adobe Illustrator 16.0.0, SVG Export Plug-In . SVG Version: 6.00 Build 0)  -->
<!DOCTYPE svg PUBLIC "-//W3C//DTD SVG 1.1//EN" "http://www.w3.org/Graphics/SVG/1.1/DTD/svg11.dtd">
<svg version="1.1" id="Layer_1" xmlns="http://www.w3.org/2000/svg" xmlns:xlink="http://www.w3.org/1999/xlink" x="0px" y="0px"
	 width="48px" height="48px" viewBox="0 0 48 48" enable-background="new 0 0 48 48" xml:space="preserve">
<path d="M44.88,29.608c3.149-3.15,3.149-8.257-0.001-11.408c-0.589-0.588-1.261-1.031-1.961-1.4
	c0.023-2.094-0.757-4.194-2.354-5.792c-0.663-0.663-1.425-1.153-2.226-1.539c-0.386-0.801-0.876-1.563-1.539-2.225
	C35.2,5.645,33.1,4.865,31.006,4.889c-0.369-0.701-0.812-1.374-1.399-1.962c-3.15-3.149-8.259-3.15-11.408,0
	c-0.081,0.081-0.135,0.174-0.209,0.257c-3.104-1.875-7.185-1.496-9.861,1.181c-3.15,3.15-3.15,8.258,0,11.409
	c1.167,1.166,2.623,1.912,4.126,2.207c-0.212,1.796-1.955,14.769-9.515,24.042c-0.75,0.919-0.655,2.264,0.218,3.067
	c0.821,0.756,2.068,0.792,2.934,0.088c9.403-7.646,22.237-9.376,23.985-9.583c0.293,1.504,1,2.926,2.168,4.094
	c3.149,3.15,8.252,3.145,11.402-0.005c2.677-2.678,3.051-6.764,1.176-9.867C44.706,29.743,44.799,29.689,44.88,29.608z
	 M14.79,25.964c0.388,0.941,0.876,1.83,1.514,2.692l-3.534,3.535C13.595,29.958,14.279,27.857,14.79,25.964z M15.725,35.146
	l3.564-3.565c0.884,0.619,1.84,1.125,2.827,1.497C20.183,33.596,17.956,34.228,15.725,35.146z"/>
</svg>
