<?xml version="1.0" encoding="utf-8"?>
<!-- Generator: Adobe Illustrator 16.0.0, SVG Export Plug-In . SVG Version: 6.00 Build 0)  -->
<!DOCTYPE svg PUBLIC "-//W3C//DTD SVG 1.1//EN" "http://www.w3.org/Graphics/SVG/1.1/DTD/svg11.dtd">
<svg version="1.1" id="Layer_1" xmlns="http://www.w3.org/2000/svg" xmlns:xlink="http://www.w3.org/1999/xlink" x="0px" y="0px"
	 width="48px" height="48px" viewBox="0 0 48 48" enable-background="new 0 0 48 48" xml:space="preserve">
<g>
	<path d="M40.657,22.536c6.818-7.027,4.138-14.586-5.985-16.88c-10.123-2.295-23.859,1.542-30.678,8.57
		c-5.643,5.815-4.764,11.985,1.44,15.244c0.419,0.22,0.927,0.187,1.313-0.086l15.578-11.002l1.497,11.181
		c0.047,0.355,0.244,0.673,0.54,0.875s0.665,0.267,1.012,0.181C31.374,29.137,37.007,26.297,40.657,22.536z"/>
	<path d="M47.438,26.203c-0.016-0.114-0.957-3.97-1.817-7.486c-0.715,1.77-1.999,3.438-3.53,5.21
		c-5.06,5.853-13.696,8.139-16.783,8.794c-0.641,0.136-1.071,0.741-0.988,1.391l1.058,8.273c0.043,0.34,0.223,0.647,0.498,0.852
		c0.275,0.204,0.622,0.289,0.959,0.232c1.156-0.193,2.025-0.377,2.473-0.478C32.134,42.353,48.918,36.442,47.438,26.203z"/>
	<path d="M20.928,22.989c-0.03-0.227-0.177-0.422-0.387-0.514c-0.21-0.092-0.453-0.067-0.64,0.065
		c-0.128,0.888-0.668,1.554-1.316,1.554c-0.214,0-0.417-0.074-0.597-0.205L7.051,31.614c-0.172,0.711-0.665,1.294-1.174,1.46
		l-0.243-1.291l-0.335-0.155c-0.698-0.322-1.351-0.679-1.956-1.068c-0.241-0.155-0.551-0.147-0.784,0.02
		c-0.233,0.166-0.34,0.458-0.272,0.735l1.236,5.025c0.612,1.986,1.73,3.493,3.167,4.63c0.438,0.347,1.051,0.363,1.508,0.042
		l3.75-2.643c-0.003-0.044-0.01-0.087-0.01-0.133c0-0.803,0.446-1.453,0.997-1.453c0.267,0,0.509,0.155,0.688,0.405l8.024-5.655
		c-0.253-0.357-0.412-0.855-0.412-1.409c0-0.582,0.174-1.104,0.45-1.463L20.928,22.989z M6.969,38.507
		c-0.007,0-0.035,0.003-0.071,0.007l-0.501-2.672C6.571,35.714,6.808,35.6,6.969,35.6c0.551,0,0.998,0.65,0.998,1.453
		C7.967,37.856,7.521,38.507,6.969,38.507z M10.595,34.083c-0.742,0-1.344-0.877-1.344-1.959c0-1.082,0.602-1.958,1.344-1.958
		s1.344,0.876,1.344,1.958C11.938,33.205,11.336,34.083,10.595,34.083z M14.589,34.85c-0.276,0-0.5-0.326-0.5-0.729
		c0-0.402,0.224-0.729,0.5-0.729c0.277,0,0.501,0.327,0.501,0.729C15.09,34.524,14.866,34.85,14.589,34.85z M15.589,29.856
		c-0.277,0-0.5-0.326-0.5-0.729c0-0.402,0.223-0.729,0.5-0.729c0.276,0,0.5,0.327,0.5,0.729
		C16.088,29.53,15.865,29.856,15.589,29.856z M18.584,30.581c-0.55,0-0.997-0.651-0.997-1.454c0-0.802,0.447-1.453,0.997-1.453
		c0.551,0,0.998,0.651,0.998,1.453C19.582,29.93,19.136,30.581,18.584,30.581z"/>
</g>
</svg>
