<?xml version="1.0" encoding="utf-8"?>
<!-- Generator: Adobe Illustrator 16.0.0, SVG Export Plug-In . SVG Version: 6.00 Build 0)  -->
<!DOCTYPE svg PUBLIC "-//W3C//DTD SVG 1.1//EN" "http://www.w3.org/Graphics/SVG/1.1/DTD/svg11.dtd">
<svg version="1.1" id="Layer_1" xmlns="http://www.w3.org/2000/svg" xmlns:xlink="http://www.w3.org/1999/xlink" x="0px" y="0px"
	 width="48px" height="48px" viewBox="0 0 48 48" enable-background="new 0 0 48 48" xml:space="preserve">
<g>
	<path d="M44.325,4.008c-4.989-4.99-13.175-4.893-21.134,3.066s-11.172,22.271-7.688,25.756c3.871,3.871,17.797,0.271,25.756-7.688
		C49.218,17.183,49.314,8.997,44.325,4.008z M25.441,12.171c-0.858,0-1.554-0.696-1.554-1.555s0.696-1.554,1.554-1.554
		s1.555,0.696,1.555,1.554S26.299,12.171,25.441,12.171z M35.109,6.378c-1.714,0-3.494,0.842-5.602,2.648
		c-0.287,0.246-0.639,0.366-0.99,0.366c-0.428,0-0.855-0.18-1.156-0.531c-0.547-0.638-0.473-1.599,0.165-2.146
		c2.69-2.306,5.1-3.38,7.582-3.38c0.84,0,1.521,0.681,1.521,1.521S35.949,6.378,35.109,6.378z"/>
	<path d="M14.068,34.265c-0.802-0.802-1.337-1.933-1.644-3.288l-3.628,3.628c-0.116-0.15-0.24-0.296-0.378-0.435
		c-1.709-1.708-4.481-1.709-6.19,0s-1.708,4.481,0,6.191c0.851,0.851,1.965,1.275,3.08,1.276c0.767,0.001,1.388,0.622,1.388,1.389
		c0,1.114,0.424,2.228,1.275,3.079c1.709,1.709,4.481,1.709,6.191,0.001c1.709-1.709,1.709-4.481,0-6.191
		c-0.127-0.126-0.262-0.242-0.399-0.35l3.543-3.542C15.98,35.67,14.891,35.088,14.068,34.265z"/>
</g>
</svg>
