<?xml version="1.0" encoding="utf-8"?>
<!-- Generator: Adobe Illustrator 16.0.0, SVG Export Plug-In . SVG Version: 6.00 Build 0)  -->
<!DOCTYPE svg PUBLIC "-//W3C//DTD SVG 1.1//EN" "http://www.w3.org/Graphics/SVG/1.1/DTD/svg11.dtd">
<svg version="1.1" id="Layer_1" xmlns="http://www.w3.org/2000/svg" xmlns:xlink="http://www.w3.org/1999/xlink" x="0px" y="0px"
	 width="48px" height="48px" viewBox="0 0 48 48" enable-background="new 0 0 48 48" xml:space="preserve">
<g>
	<path d="M42.803,5.831c-0.038-0.554-0.499-0.984-1.055-0.984H7.418c-0.556,0-1.017,0.43-1.055,0.984L4.271,36.183
		c-0.021,0.292,0.082,0.58,0.282,0.794c0.2,0.214,0.479,0.336,0.772,0.336h38.517c0.293,0,0.573-0.122,0.772-0.336
		c0.2-0.214,0.302-0.501,0.282-0.794L42.803,5.831z M24.586,29.031c-4.242,0-7.682-3.439-7.682-7.682
		c0-4.243,3.44-7.682,7.682-7.682c4.242,0,7.682,3.439,7.682,7.682C32.268,25.592,28.828,29.031,24.586,29.031z"/>
	<path d="M40.964,1.832c-0.545-0.545-1.429-0.545-1.975,0L38.722,2.1c-0.545,0.545-1.429,0.545-1.975,0L36.48,1.833
		c-0.545-0.545-1.429-0.545-1.975,0L34.308,2.03c-0.545,0.545-1.429,0.545-1.975,0l-0.198-0.198c-0.545-0.545-1.429-0.545-1.974,0
		L29.893,2.1c-0.545,0.545-1.429,0.545-1.974,0l-0.268-0.268c-0.262-0.262-0.617-0.409-0.987-0.409c-0.37,0-0.726,0.147-0.987,0.409
		l-0.105,0.106c-0.262,0.262-0.617,0.409-0.987,0.409c-0.371,0-0.726-0.147-0.987-0.409L23.49,1.832
		c-0.545-0.545-1.429-0.545-1.974,0L21.247,2.1c-0.545,0.545-1.429,0.545-1.974,0l-0.268-0.268
		c-0.262-0.262-0.617-0.409-0.987-0.409c-0.37,0-0.726,0.147-0.987,0.409L16.833,2.03c-0.545,0.545-1.429,0.545-1.975,0
		l-0.198-0.198c-0.545-0.545-1.429-0.545-1.975,0L12.418,2.1c-0.545,0.545-1.429,0.545-1.974,0l-0.268-0.268
		C9.914,1.57,9.559,1.423,9.188,1.424c-0.37,0-0.725,0.147-0.987,0.409L7.255,2.78C7.14,2.895,7.106,3.068,7.168,3.218
		c0.062,0.15,0.208,0.248,0.371,0.248h34.089c0.162,0,0.309-0.098,0.371-0.248c0.062-0.15,0.027-0.323-0.087-0.438L40.964,1.832z"/>
	<path d="M5.645,42.32c0.579,1.447,1.449,2.76,2.557,3.857c0.546,0.541,1.426,0.539,1.969-0.004l0.273-0.273
		c0.545-0.545,1.429-0.545,1.974,0l0.268,0.268c0.545,0.545,1.429,0.545,1.975,0l0.198-0.198c0.545-0.545,1.429-0.545,1.975,0
		l0.197,0.198c0.262,0.262,0.617,0.409,0.987,0.409c0.371,0,0.726-0.147,0.987-0.409l0.268-0.268c0.545-0.545,1.429-0.545,1.974,0
		l0.269,0.268c0.545,0.545,1.429,0.545,1.974,0l0.106-0.106c0.262-0.262,0.617-0.409,0.987-0.409c0.37,0,0.726,0.147,0.987,0.409
		l0.105,0.106c0.262,0.262,0.617,0.409,0.987,0.409c0.371,0,0.726-0.147,0.987-0.409l0.268-0.268c0.545-0.545,1.429-0.545,1.974,0
		l0.269,0.268c0.545,0.545,1.429,0.545,1.974,0l0.198-0.198c0.545-0.545,1.429-0.545,1.975,0l0.198,0.198
		c0.545,0.545,1.429,0.545,1.975,0l0.267-0.267c0.545-0.545,1.429-0.545,1.975,0l0.267,0.267c0.545,0.545,1.429,0.545,1.975,0
		l0.019-0.019c1.08-1.079,1.931-2.364,2.503-3.779l1.265-3.125c0.05-0.124,0.036-0.264-0.039-0.375s-0.2-0.177-0.333-0.177H4.786
		c-0.133,0-0.258,0.066-0.333,0.176c-0.075,0.111-0.09,0.251-0.04,0.375L5.645,42.32z"/>
</g>
</svg>
