<?xml version="1.0" encoding="utf-8"?>
<!-- Generator: Adobe Illustrator 16.0.0, SVG Export Plug-In . SVG Version: 6.00 Build 0)  -->
<!DOCTYPE svg PUBLIC "-//W3C//DTD SVG 1.1//EN" "http://www.w3.org/Graphics/SVG/1.1/DTD/svg11.dtd">
<svg version="1.1" id="Layer_1" xmlns="http://www.w3.org/2000/svg" xmlns:xlink="http://www.w3.org/1999/xlink" x="0px" y="0px"
	 width="48px" height="48px" viewBox="0 0 48 48" enable-background="new 0 0 48 48" xml:space="preserve">
<g>
	<path d="M32.232,10.295c-0.082-0.653-0.653-1.166-1.312-1.166h-4.967c-0.723,0-1.332,0.629-1.332,1.351v6.68
		c0,2.5-1.559,4.731-3.916,5.578c-5.209,1.804-8.678,6.745-8.678,12.267v9.476c0,1.675,1.352,3.038,3.026,3.038h16.213
		c1.676,0,3.066-1.363,3.066-3.038V26.904L32.232,10.295z"/>
	<path d="M30.941,0.48H18.098c-0.838,0-1.518,0.679-1.518,1.517c-0.67,0-1.213,0.543-1.213,1.213v0.078
		c0,0.67,0.543,1.213,1.213,1.213c0,0.838,0.68,1.518,1.518,1.518h2.915c-0.005,1.065-0.202,3.256-1.5,5.415
		c-0.304,0.504-0.15,1.157,0.345,1.475l0.026,0.017c0.225,0.144,0.497,0.191,0.756,0.132c0.26-0.06,0.484-0.221,0.623-0.448
		c1.606-2.617,1.891-5.28,1.896-6.59h1.767v0.853c0,0.492,0.399,0.892,0.892,0.892h5.12c0.492,0,0.892-0.399,0.892-0.892V6.019
		c0.796,0,1.441-0.646,1.441-1.441V2.571C33.271,1.813,32.344,0.48,30.941,0.48z"/>
</g>
</svg>
