<?xml version="1.0" encoding="utf-8"?>
<!-- Generator: Adobe Illustrator 16.0.0, SVG Export Plug-In . SVG Version: 6.00 Build 0)  -->
<!DOCTYPE svg PUBLIC "-//W3C//DTD SVG 1.1//EN" "http://www.w3.org/Graphics/SVG/1.1/DTD/svg11.dtd">
<svg version="1.1" id="Layer_1" xmlns="http://www.w3.org/2000/svg" xmlns:xlink="http://www.w3.org/1999/xlink" x="0px" y="0px"
	 width="48px" height="48px" viewBox="0 0 48 48" enable-background="new 0 0 48 48" xml:space="preserve">
<g>
	<path d="M33.422,2.388c-2.386-2.386-6.252-2.386-8.639,0L2.158,25.012c-2.386,2.387-2.386,6.254,0,8.64l8.507,8.506l31.264-31.264
		L33.422,2.388z M31.406,11.661c-0.815,0.816-1.923,1.146-2.986,1.022c0.125,1.064-0.206,2.17-1.021,2.986
		c-1.416,1.416-3.713,1.417-5.13,0c-1.415-1.416-1.414-3.712,0.002-5.129c0.816-0.815,1.923-1.146,2.985-1.021
		c-0.125-1.063,0.206-2.171,1.022-2.987c1.416-1.416,3.712-1.416,5.128,0C32.822,7.949,32.822,10.245,31.406,11.661z"/>
	<path d="M45.906,14.934L14.705,46.136c2.4,2.075,6.017,2,8.296-0.281l22.624-22.624C47.905,20.951,47.981,17.333,45.906,14.934z"/>
</g>
</svg>
