<?xml version="1.0" encoding="utf-8"?>
<!-- Generator: Adobe Illustrator 16.0.0, SVG Export Plug-In . SVG Version: 6.00 Build 0)  -->
<!DOCTYPE svg PUBLIC "-//W3C//DTD SVG 1.1//EN" "http://www.w3.org/Graphics/SVG/1.1/DTD/svg11.dtd">
<svg version="1.1" id="Layer_1" xmlns="http://www.w3.org/2000/svg" xmlns:xlink="http://www.w3.org/1999/xlink" x="0px" y="0px"
	 width="48px" height="48px" viewBox="0 0 48 48" enable-background="new 0 0 48 48" xml:space="preserve">
<g>
	<path d="M26.597,1.957c2.03-2.032,5.324-2.043,7.354-0.013l5.985,5.986c0.988,0.988,0.968,2.583-0.02,3.57l-1.883,1.884
		c-0.988,0.987-2.566,0.992-3.555,0.004l-9.657-9.657L26.597,1.957z"/>
	<path d="M38.225,2.433c2.031-2.031,5.321-2.05,7.351-0.019l1.091,1.09c1.195,1.196,1.188,3.142-0.007,4.337
		c-1.155,1.155-3.036,1.163-4.191,0.008l-4.831-4.831L38.225,2.433z"/>
	<path d="M6.252,16.843l5.433-5.434l5.432-5.433c1.973-1.973,5.14-1.962,7.111,0.01l8.805,8.805
		c0.988,0.988,1.015,2.577,0.027,3.565l-7.214,7.213l-7.215,7.215c-0.988,0.987-2.607,0.992-3.596,0.004l-8.805-8.805
		C4.26,22.013,4.28,18.813,6.252,16.843z"/>
	<path d="M2.228,33.668c-2.03-2.032-2.026-5.315,0.003-7.346l1.785-1.785l9.657,9.657c0.988,0.988,0.975,2.575-0.014,3.563
		l-1.883,1.884c-0.988,0.988-2.573,1-3.562,0.012L2.228,33.668z"/>
	<path d="M3.303,37.354l4.832,4.83c1.154,1.155,1.147,3.036-0.008,4.191c-1.196,1.195-3.143,1.203-4.337,0.008l-1.09-1.09
		c-2.031-2.031-2.021-5.313,0.01-7.344L3.303,37.354z"/>
</g>
</svg>
