<?xml version="1.0" encoding="utf-8"?>
<!-- Generator: Adobe Illustrator 16.0.0, SVG Export Plug-In . SVG Version: 6.00 Build 0)  -->
<!DOCTYPE svg PUBLIC "-//W3C//DTD SVG 1.1//EN" "http://www.w3.org/Graphics/SVG/1.1/DTD/svg11.dtd">
<svg version="1.1" id="Layer_1" xmlns="http://www.w3.org/2000/svg" xmlns:xlink="http://www.w3.org/1999/xlink" x="0px" y="0px"
	 width="48px" height="48px" viewBox="0 0 48 48" enable-background="new 0 0 48 48" xml:space="preserve">
<g>
	<path d="M44.132,17.458c-0.73-2.255,0.267-5.41-1.099-7.287c-1.379-1.895-4.699-1.915-6.594-3.295
		c-1.876-1.365-2.914-4.523-5.168-5.255C29.097,0.915,26.411,2.837,24,2.837c-2.41,0-5.097-1.922-7.271-1.216
		c-2.254,0.731-3.292,3.89-5.169,5.255c-1.895,1.38-5.213,1.4-6.592,3.295c-1.365,1.877-0.369,5.032-1.1,7.287
		C3.161,19.632,0.476,21.589,0.476,24c0,2.41,2.686,4.367,3.393,6.542c0.73,2.254-0.267,5.41,1.1,7.287
		c1.379,1.895,4.698,1.915,6.593,3.294c1.876,1.366,2.914,4.524,5.168,5.257c2.175,0.705,4.86-1.217,7.271-1.217
		s5.097,1.922,7.271,1.217c2.254-0.732,3.292-3.891,5.168-5.256c1.895-1.379,5.214-1.4,6.594-3.295
		c1.365-1.876,0.368-5.032,1.099-7.286c0.707-2.175,3.393-4.133,3.393-6.543C47.524,21.589,44.839,19.633,44.132,17.458z M24,40.507
		c-9.102,0-16.507-7.404-16.507-16.507c0-9.102,7.405-16.507,16.507-16.507S40.507,14.898,40.507,24
		C40.507,33.103,33.102,40.507,24,40.507z"/>
	<path d="M24,10.189c-7.616,0-13.812,6.195-13.812,13.811S16.384,37.812,24,37.812S37.812,31.616,37.812,24S31.616,10.189,24,10.189
		z M33.198,22.377l-4.469,3.711l1.434,5.629c0.084,0.331-0.042,0.679-0.317,0.88c-0.276,0.2-0.646,0.212-0.935,0.03L24,29.524
		l-4.91,3.103c-0.289,0.182-0.659,0.17-0.935-0.03c-0.276-0.201-0.402-0.549-0.317-0.88l1.434-5.629l-4.469-3.711
		c-0.263-0.218-0.366-0.574-0.26-0.898c0.105-0.324,0.398-0.552,0.739-0.574l5.796-0.376l2.149-5.396
		c0.126-0.317,0.433-0.525,0.774-0.525s0.648,0.208,0.774,0.525l2.149,5.396l5.796,0.376c0.341,0.022,0.633,0.25,0.739,0.574
		C33.563,21.803,33.46,22.159,33.198,22.377z"/>
</g>
</svg>
