<?xml version="1.0" encoding="utf-8"?>
<!-- Generator: Adobe Illustrator 16.0.0, SVG Export Plug-In . SVG Version: 6.00 Build 0)  -->
<!DOCTYPE svg PUBLIC "-//W3C//DTD SVG 1.1//EN" "http://www.w3.org/Graphics/SVG/1.1/DTD/svg11.dtd">
<svg version="1.1" id="Layer_1" xmlns="http://www.w3.org/2000/svg" xmlns:xlink="http://www.w3.org/1999/xlink" x="0px" y="0px"
	 width="48px" height="48px" viewBox="0 0 48 48" enable-background="new 0 0 48 48" xml:space="preserve">
<g>
	<path d="M47.467,4.577C43.346,0.456,35.6,0.456,28.253,4.234c-0.265,3.601,1.084,7.454,4.011,10.381
		c2.299,2.298,5.169,3.619,8.041,3.958C45.895,11.825,48.835,5.944,47.467,4.577z M39.701,7.178
		c-0.632,0.633-1.658,0.633-2.29,0.002c-0.633-0.633-0.633-1.659,0-2.292c0.632-0.633,1.658-0.633,2.291,0
		C40.334,5.521,40.334,6.547,39.701,7.178z"/>
	<path d="M25.589,5.783c-0.542,0.354-1.079,0.729-1.61,1.125l-1.26-0.664c-1.099-0.575-2.45-0.376-3.328,0.501l-8.862,8.862
		c-0.639,0.639-0.928,1.547-0.792,2.44c0.137,0.891,0.692,1.668,1.491,2.087l2.01,1.053c-2.014,4.696-3.107,9.297-3.405,12.211
		l-8.75,3.009c-0.395,0.135-0.667,0.496-0.689,0.912c-0.022,0.417,0.209,0.805,0.586,0.982l3.816,1.797
		c0.747,0.351,1.346,0.952,1.698,1.698l1.797,3.816c0.177,0.376,0.566,0.608,0.981,0.585c0.417-0.022,0.777-0.295,0.913-0.688
		l3.013-8.764c4.108-0.676,11.234-3.817,17.423-8.546l0.694,2.14c0.125,0.387,0.439,0.677,0.835,0.773
		c0.396,0.095,0.808-0.026,1.097-0.313l0.742-0.742c0.57-0.571,0.92-1.327,0.976-2.133l0.262-3.762
		c1.081-1.089,2.106-2.178,3.074-3.259c-2.855-0.662-5.621-2.139-7.904-4.422C27.374,13.457,25.757,9.587,25.589,5.783z"/>
</g>
</svg>
