<?xml version="1.0" encoding="utf-8"?>
<!-- Generator: Adobe Illustrator 16.0.0, SVG Export Plug-In . SVG Version: 6.00 Build 0)  -->
<!DOCTYPE svg PUBLIC "-//W3C//DTD SVG 1.1//EN" "http://www.w3.org/Graphics/SVG/1.1/DTD/svg11.dtd">
<svg version="1.1" id="Layer_1" xmlns="http://www.w3.org/2000/svg" xmlns:xlink="http://www.w3.org/1999/xlink" x="0px" y="0px"
	 width="48px" height="48px" viewBox="0 0 48 48" enable-background="new 0 0 48 48" xml:space="preserve">
<g>
	<path d="M42.942,10.604c-0.217-0.807-0.949-1.369-1.785-1.369H6.813c-0.836,0-1.568,0.561-1.785,1.368l-0.885,3.289
		c-0.724,2.692-1.091,5.467-1.091,8.254v20.807c0,0.738,0.44,1.407,1.118,1.699c2.22,0.955,8.026,2.791,19.866,2.791
		c11.821,0,17.57-1.83,19.768-2.787c0.674-0.293,1.111-0.96,1.111-1.696V22.142c0-2.784-0.366-5.556-1.088-8.245L42.942,10.604z
		 M8.801,14.519c0.097-0.363,0.426-0.616,0.802-0.616h28.763c0.376,0,0.705,0.253,0.802,0.616l0.002,0.008
		c0.715,2.675,1.077,5.432,1.077,8.201v1.531h-7.116c-1.684-3.344-5.146-5.638-9.146-5.638s-7.462,2.294-9.146,5.638H7.72v-1.522
		C7.72,19.962,8.083,17.2,8.801,14.519z M33.968,26.593h6.279v4.667h-6.313c0.186-0.771,0.285-1.576,0.285-2.404
		C34.22,28.079,34.132,27.321,33.968,26.593z M14.036,31.261H7.72v-4.667h6.282c-0.164,0.728-0.251,1.485-0.251,2.263
		C13.751,29.685,13.85,30.49,14.036,31.261z M24.036,42.796c-8.033,0-12.988-0.89-15.705-1.638c-0.36-0.099-0.61-0.427-0.61-0.8
		v-6.836h7.154c1.696,3.307,5.14,5.569,9.111,5.569s7.415-2.262,9.111-5.569h7.15v6.849c0,0.375-0.25,0.702-0.611,0.801
		C36.929,41.913,32.041,42.796,24.036,42.796z"/>
	<path d="M42.582,3.487c0-1.619-1.312-2.931-2.93-2.931H8.489c-1.714,0-3.103,1.389-3.103,3.103v0.81
		c0,1.021,0.828,1.849,1.849,1.849h33.498c1.021,0,1.849-0.828,1.849-1.849V3.487z"/>
</g>
</svg>
