<?xml version="1.0" encoding="utf-8"?>
<!-- Generator: Adobe Illustrator 16.0.0, SVG Export Plug-In . SVG Version: 6.00 Build 0)  -->
<!DOCTYPE svg PUBLIC "-//W3C//DTD SVG 1.1//EN" "http://www.w3.org/Graphics/SVG/1.1/DTD/svg11.dtd">
<svg version="1.1" id="Layer_1" xmlns="http://www.w3.org/2000/svg" xmlns:xlink="http://www.w3.org/1999/xlink" x="0px" y="0px"
	 width="48px" height="48px" viewBox="0 0 48 48" enable-background="new 0 0 48 48" xml:space="preserve">
<g>
	<path d="M27.615,47.647h9.938c2.943,0,5.33-2.386,5.33-5.33V24.242c0-0.882-0.715-1.597-1.598-1.597h-13.67V47.647z"/>
	<path d="M5.378,42.317c0,2.944,2.387,5.33,5.33,5.33h9.827V22.645H6.975c-0.882,0-1.597,0.715-1.597,1.597V42.317z"/>
	<path d="M2.058,18.945c0,0.882,0.715,1.597,1.597,1.597h16.881V11.58H7.388c-2.943,0-5.33,2.386-5.33,5.33V18.945z"/>
	<path d="M27.615,11.581v8.961h16.99c0.882,0,1.597-0.715,1.597-1.597v-2.034c0-2.944-2.387-5.33-5.33-5.33H27.615z"/>
	<path d="M39.784,7.882c0-4.534-2.483-7.714-6.366-7.714c-2.084,0-5.101,0.908-8.979,5.007c-3.926-4.096-7.139-4.994-9.22-4.994
		c-3.883,0-6.632,3.167-6.632,7.701c0,0.882,0.715,1.597,1.597,1.597h28.004C39.069,9.479,39.784,8.764,39.784,7.882z M12.055,6.27
		c0.373-1.549,1.337-2.875,3.192-2.875c1.638,0,3.629,1.104,5.693,2.875H12.055z M27.956,6.27c2.064-1.77,4.054-2.875,5.69-2.875
		c1.856,0,2.822,1.326,3.193,2.875H27.956z"/>
</g>
</svg>
