<?xml version="1.0" encoding="utf-8"?>
<!-- Generator: Adobe Illustrator 16.0.0, SVG Export Plug-In . SVG Version: 6.00 Build 0)  -->
<!DOCTYPE svg PUBLIC "-//W3C//DTD SVG 1.1//EN" "http://www.w3.org/Graphics/SVG/1.1/DTD/svg11.dtd">
<svg version="1.1" id="Layer_1" xmlns="http://www.w3.org/2000/svg" xmlns:xlink="http://www.w3.org/1999/xlink" x="0px" y="0px"
	 width="48px" height="48px" viewBox="0 0 48 48" enable-background="new 0 0 48 48" xml:space="preserve">
<g>
	<path d="M8.453,29.456c-4.355,0-7.883,3.527-7.883,7.881s3.527,7.882,7.883,7.882c4.353,0,7.881-3.528,7.881-7.882
		S12.806,29.456,8.453,29.456z M8.31,42.05c0,0-5.468-2.45-5.468-5.793c0-1.638,1.325-2.965,2.963-2.965
		c1.06,0,1.981,0.56,2.506,1.396c0.528-0.839,1.457-1.4,2.521-1.396c1.637,0.01,2.949,1.343,2.949,2.98
		C13.78,39.534,8.31,42.05,8.31,42.05z"/>
	<g>
		<path d="M1.965,9.721h44.208c0.235,0,0.446-0.145,0.528-0.365c0.083-0.221,0.019-0.468-0.158-0.623l-2.466-2.151
			c-0.746-0.646-1.7-1.021-2.688-1.021H6.697c-1.003,0-1.973,0.386-2.723,1.051L1.59,8.733C1.415,8.888,1.354,9.137,1.438,9.356
			C1.521,9.575,1.73,9.721,1.965,9.721z"/>
		<path d="M36.287,18.413l-1.884,1.372c-1.879,1.382-4.405,1.289-6.284-0.093l-1.837-1.325c-1.152-0.848-2.703-0.799-3.858,0.045
			l-1.883,1.36c-1.881,1.382-4.405,1.275-6.283-0.107l-1.839-1.352c-1.152-0.849-2.716-0.852-3.87-0.008l-3.387,2.526v7.785
			c1.053-0.37,2.098-0.576,3.229-0.576c0.971,0,1.918,0.157,2.797,0.42h27.721v6.634c0,1.097-0.906,2-2.003,2H17.689
			c0.003,0.053,0.004,0.162,0.004,0.246c0,1.756-0.487,3.395-1.334,4.794l22.528-0.008c2.253,0,4.074-1.819,4.074-4.071V20.385
			l-2.819-2.018C38.989,17.52,37.443,17.568,36.287,18.413z M38.908,25.935H9.428v-1.277c0-1.096,0.89-1.986,1.985-1.986h25.492
			c1.097,0,2.003,0.89,2.003,1.986V25.935z"/>
		<path d="M47.193,11.12c-0.208-0.251-0.519-0.398-0.844-0.398H1.919c-0.342,0-0.666,0.161-0.872,0.433
			c-0.208,0.273-0.275,0.627-0.185,0.957l1.378,4.964c0.178,0.639,0.659,1.149,1.286,1.363s1.32,0.104,1.849-0.293l1.984-1.485
			c1.878-1.369,4.396-1.364,6.269,0.012l1.837,1.353c1.156,0.85,2.712,0.849,3.867,0l1.858-1.367
			c1.644-1.209,3.796-1.353,5.567-0.438c0.015,0.008,0.029,0.019,0.045,0.027c0.212,0.112,0.422,0.233,0.622,0.377l2.252,1.616
			c1.106,0.62,2.473,0.551,3.519-0.216l1.858-1.367c1.644-1.211,3.794-1.356,5.566-0.44c0.017,0.009,0.029,0.016,0.045,0.024
			c0.212,0.113,0.422,0.225,0.623,0.369l2.078,1.482c0.556,0.397,1.275,0.483,1.909,0.229c0.635-0.254,1.097-0.813,1.226-1.484
			l0.923-4.811C47.487,11.704,47.402,11.372,47.193,11.12z"/>
	</g>
</g>
</svg>
