<?xml version="1.0" encoding="utf-8"?>
<!-- Generator: Adobe Illustrator 16.0.0, SVG Export Plug-In . SVG Version: 6.00 Build 0)  -->
<!DOCTYPE svg PUBLIC "-//W3C//DTD SVG 1.1//EN" "http://www.w3.org/Graphics/SVG/1.1/DTD/svg11.dtd">
<svg version="1.1" id="Layer_1" xmlns="http://www.w3.org/2000/svg" xmlns:xlink="http://www.w3.org/1999/xlink" x="0px" y="0px"
	 width="48px" height="48px" viewBox="0 0 48 48" enable-background="new 0 0 48 48" xml:space="preserve">
<g>
	<path d="M31.846,11.515c-1.65-1.331-2.721-3.368-2.721-5.651c0-0.558-0.452-1.01-1.01-1.01h-5.229c-0.558,0-1.01,0.452-1.01,1.01
		c0,2.284-1.071,4.321-2.72,5.651c-2.88,2.321-4.567,5.824-4.567,9.522v21.146c0,2.839,2.322,5.126,5.162,5.126h11.485
		c2.839,0,5.176-2.288,5.176-5.126V21.037C36.412,17.343,34.722,13.834,31.846,11.515z M17.509,19.837
		c0.715-3.089,1.88-5.141,3.669-6.457c0.604-0.446,1.457-0.318,1.903,0.289c0.445,0.605,0.316,1.458-0.289,1.903
		c-1.234,0.91-2.07,2.459-2.63,4.879c-0.169,0.732-0.9,1.189-1.633,1.02c-0.017-0.004-0.034-0.008-0.05-0.013
		C17.775,21.267,17.343,20.553,17.509,19.837z M32.731,41.188c0,1.233-1.021,2.219-2.266,2.219H20.52
		c-1.246,0-2.251-0.986-2.251-2.219V26.082h14.462V41.188z"/>
	<path d="M29.125,1.769c0-0.596-0.483-1.079-1.079-1.079h-5.092c-0.596,0-1.079,0.483-1.079,1.079v0.965
		c0,0.596,0.483,1.079,1.079,1.079h5.092c0.596,0,1.079-0.483,1.079-1.079V1.769z"/>
</g>
</svg>
