<?xml version="1.0" encoding="utf-8"?>
<!-- Generator: Adobe Illustrator 16.0.0, SVG Export Plug-In . SVG Version: 6.00 Build 0)  -->
<!DOCTYPE svg PUBLIC "-//W3C//DTD SVG 1.1//EN" "http://www.w3.org/Graphics/SVG/1.1/DTD/svg11.dtd">
<svg version="1.1" id="Layer_1" xmlns="http://www.w3.org/2000/svg" xmlns:xlink="http://www.w3.org/1999/xlink" x="0px" y="0px"
	 width="48px" height="48px" viewBox="0 0 48 48" enable-background="new 0 0 48 48" xml:space="preserve">
<g>
	<path d="M28.72,20.085L28.72,20.085c-2.629-0.942-4.355-3.428-4.355-6.215V6.426c0-0.804-0.683-1.486-1.486-1.486h-5.537
		c-0.733,0-1.362,0.561-1.454,1.289l-2.332,18.499v19.586c0,1.866,1.532,3.358,3.4,3.358h18.067c1.867,0,3.355-1.492,3.355-3.358
		v-10.56C38.378,27.602,34.522,22.096,28.72,20.085z M34.79,43.286c0,0.426-0.324,0.753-0.75,0.753H17.932
		c-0.426,0-0.789-0.327-0.789-0.753V25.965c2.688,2.723,10.924-3.278,15.685,1.729c1.39,1.46,1.963,3.953,1.963,6.179V43.286z"/>
	<path d="M24.05,1.914c0-0.828-0.671-1.499-1.499-1.499h-4.731c-0.828,0-1.499,0.671-1.499,1.499v0.559
		c0,0.495,0.401,0.896,0.896,0.896h5.937c0.495,0,0.896-0.401,0.896-0.896V1.914z"/>
</g>
</svg>
