<?xml version="1.0" encoding="utf-8"?>
<!-- Generator: Adobe Illustrator 16.0.0, SVG Export Plug-In . SVG Version: 6.00 Build 0)  -->
<!DOCTYPE svg PUBLIC "-//W3C//DTD SVG 1.1//EN" "http://www.w3.org/Graphics/SVG/1.1/DTD/svg11.dtd">
<svg version="1.1" id="Layer_1" xmlns="http://www.w3.org/2000/svg" xmlns:xlink="http://www.w3.org/1999/xlink" x="0px" y="0px"
	 width="48px" height="48px" viewBox="0 0 48 48" enable-background="new 0 0 48 48" xml:space="preserve">
<g>
	<path d="M44.132,17.457c-0.73-2.255,0.267-5.41-1.099-7.287c-1.379-1.895-4.699-1.915-6.594-3.295
		c-1.876-1.365-2.914-4.523-5.168-5.255C29.097,0.914,26.411,2.836,24,2.836c-2.41,0-5.097-1.922-7.271-1.216
		c-2.254,0.731-3.292,3.89-5.169,5.255c-1.895,1.38-5.213,1.4-6.592,3.295c-1.365,1.877-0.369,5.032-1.1,7.287
		c-0.707,2.174-3.393,4.131-3.393,6.542c0,2.41,2.686,4.367,3.393,6.542c0.73,2.254-0.267,5.41,1.1,7.287
		c1.379,1.895,4.698,1.915,6.593,3.294c1.876,1.366,2.914,4.524,5.168,5.257c2.175,0.705,4.86-1.217,7.271-1.217
		s5.097,1.922,7.271,1.217c2.254-0.732,3.292-3.891,5.168-5.256c1.895-1.379,5.214-1.4,6.594-3.295
		c1.365-1.876,0.368-5.032,1.099-7.286c0.707-2.175,3.393-4.133,3.393-6.543C47.524,21.588,44.839,19.632,44.132,17.457z M24,40.576
		c-9.155,0-16.577-7.422-16.577-16.577S14.845,7.422,24,7.422c9.156,0,16.577,7.422,16.577,16.577S33.156,40.576,24,40.576z"/>
	<path d="M24,9.536c-7.975,0-14.463,6.488-14.463,14.463c0,7.976,6.488,14.463,14.463,14.463s14.463-6.487,14.463-14.463
		C38.463,16.024,31.975,9.536,24,9.536z M24,36.101c-6.673,0-12.102-5.429-12.102-12.102S17.327,11.898,24,11.898
		s12.102,5.428,12.102,12.101S30.673,36.101,24,36.101z"/>
	<path d="M25.335,22.406c-1.837-0.692-2.594-1.146-2.594-1.858c0-0.605,0.454-1.211,1.858-1.211c0.853,0,1.536,0.149,2.073,0.323
		c0.269,0.087,0.563,0.057,0.808-0.084c0.246-0.141,0.42-0.38,0.48-0.656l0.107-0.5c0.105-0.492-0.17-0.983-0.645-1.151
		C26.92,17.09,26.247,16.957,25,16.917V16c0-0.552-0.448-1-1-1s-1,0.448-1,1v1.067c-2,0.455-3.609,1.945-3.609,3.848
		c0,2.096,1.601,3.177,3.913,3.955c1.6,0.54,2.302,1.059,2.302,1.88c0,0.864-0.837,1.34-2.068,1.34c-0.935,0-1.81-0.201-2.558-0.48
		c-0.266-0.1-0.563-0.081-0.814,0.051c-0.252,0.132-0.437,0.365-0.507,0.641l-0.135,0.538c-0.128,0.509,0.158,1.029,0.657,1.193
		c0.909,0.299,2.093,0.518,2.821,0.565V32c0,0.552,0.448,1,1,1s1-0.448,1-1v-1.554c3-0.434,3.896-2.074,3.896-3.998
		C28.896,24.503,27.907,23.313,25.335,22.406z"/>
</g>
</svg>
