<?xml version="1.0" encoding="utf-8"?>
<!-- Generator: Adobe Illustrator 16.0.0, SVG Export Plug-In . SVG Version: 6.00 Build 0)  -->
<!DOCTYPE svg PUBLIC "-//W3C//DTD SVG 1.1//EN" "http://www.w3.org/Graphics/SVG/1.1/DTD/svg11.dtd">
<svg version="1.1" id="Layer_1" xmlns="http://www.w3.org/2000/svg" xmlns:xlink="http://www.w3.org/1999/xlink" x="0px" y="0px"
	 width="48px" height="48px" viewBox="0 0 48 48" enable-background="new 0 0 48 48" xml:space="preserve">
<g>
	<path d="M44.992,12.303H38.84v-5.05c0-3.25-2.593-5.868-5.842-5.868H17.072c-3.249,0-5.895,2.619-5.895,5.868v5.05H5.023
		c-1.415,0-2.58,1.148-2.58,2.564v5.575c0,1.417,1.165,2.572,2.58,2.572h0.766l1.276,7.009c0.359-0.044,0.725-0.069,1.097-0.069
		c4.96,0,8.997,4.026,8.997,8.986c0,0.53-0.048,1.077-0.137,1.544h21.933c1.239,0,2.302-0.873,2.523-2.091l2.803-15.379h0.711
		c1.416,0,2.583-1.156,2.583-2.572v-5.575C47.575,13.452,46.408,12.303,44.992,12.303z M15.909,7.253
		c0-0.62,0.543-1.137,1.163-1.137h15.925c0.62,0,1.111,0.517,1.111,1.137v5.05H15.909V7.253z M19.497,31.339
		c0,0.985-0.807,1.784-1.793,1.784c-0.985,0-1.795-0.799-1.795-1.784v-9.794c0-0.985,0.81-1.785,1.795-1.785
		c0.986,0,1.793,0.799,1.793,1.785V31.339z M26.828,31.339c0,0.985-0.808,1.784-1.792,1.784c-0.985,0-1.795-0.799-1.795-1.784
		v-9.794c0-0.985,0.81-1.785,1.795-1.785c0.984,0,1.792,0.799,1.792,1.785V31.339z M34.16,31.339c0,0.985-0.783,1.784-1.768,1.784
		c-0.985,0-1.768-0.799-1.768-1.784v-9.794c0-0.985,0.782-1.785,1.768-1.785c0.984,0,1.768,0.799,1.768,1.785V31.339z"/>
	<path d="M8.162,31.282c-4.234,0-7.666,3.432-7.666,7.667c0,4.234,3.432,7.667,7.666,7.667s7.666-3.433,7.666-7.667
		C15.828,34.714,12.396,31.282,8.162,31.282z M12.479,38.847c0,0.531-0.431,0.962-0.962,0.962H4.705
		c-0.531,0-0.962-0.431-0.962-0.962s0.431-0.962,0.962-0.962h6.812C12.048,37.885,12.479,38.316,12.479,38.847z"/>
</g>
</svg>
