<?xml version="1.0" encoding="utf-8"?>
<!-- Generator: Adobe Illustrator 16.0.0, SVG Export Plug-In . SVG Version: 6.00 Build 0)  -->
<!DOCTYPE svg PUBLIC "-//W3C//DTD SVG 1.1//EN" "http://www.w3.org/Graphics/SVG/1.1/DTD/svg11.dtd">
<svg version="1.1" id="Layer_1" xmlns="http://www.w3.org/2000/svg" xmlns:xlink="http://www.w3.org/1999/xlink" x="0px" y="0px"
	 width="48px" height="48px" viewBox="0 0 48 48" enable-background="new 0 0 48 48" xml:space="preserve">
<path d="M46.207,41.945l-1.748-27.313c-0.12-1.88-1.68-3.343-3.563-3.343h-4.191V5.813c0-3.034-2.485-5.49-5.52-5.49h-13.46
	c-3.033,0-5.515,2.457-5.515,5.49v5.475H8.014c-1.884,0-3.443,1.463-3.563,3.343L2.702,41.945c-0.095,1.483,0.428,2.944,1.443,4.028
	c1.018,1.083,2.437,1.704,3.923,1.704h32.772c1.486,0,2.906-0.62,3.923-1.704C45.779,44.889,46.303,43.428,46.207,41.945z
	 M15.701,6.39c0-1.423,1.175-2.575,2.599-2.575h12.309c1.423,0,2.55,1.152,2.55,2.575v4.899H15.701V6.39z"/>
</svg>
