<?xml version="1.0" encoding="utf-8"?>
<!-- Generator: Adobe Illustrator 16.0.0, SVG Export Plug-In . SVG Version: 6.00 Build 0)  -->
<!DOCTYPE svg PUBLIC "-//W3C//DTD SVG 1.1//EN" "http://www.w3.org/Graphics/SVG/1.1/DTD/svg11.dtd">
<svg version="1.1" id="Layer_1" xmlns="http://www.w3.org/2000/svg" xmlns:xlink="http://www.w3.org/1999/xlink" x="0px" y="0px"
	 width="48px" height="48px" viewBox="0 0 48 48" enable-background="new 0 0 48 48" xml:space="preserve">
<g>
	<path d="M43.874,9.754c-0.742-0.642-1.691-1.003-2.672-1.003H6.724c-0.996,0-1.959,0.373-2.705,1.033l-2.37,2.101
		c-0.174,0.155-0.235,0.401-0.152,0.619c0.083,0.218,0.291,0.362,0.524,0.362h43.936c0.234,0,0.443-0.146,0.525-0.365
		c0.082-0.219,0.019-0.466-0.158-0.62L43.874,9.754z"/>
	<path d="M18.735,27.758H13.06c-0.954,0-1.689,0.813-1.689,1.768v15.539h9.079V29.526C20.45,28.571,19.689,27.758,18.735,27.758z"/>
	<path d="M36.131,21.499l-1.873,1.364c-1.867,1.374-4.377,1.281-6.244-0.092l-1.827-1.317c-1.146-0.843-2.686-0.794-3.834,0.045
		l-1.873,1.352c-1.867,1.374-4.377,1.268-6.244-0.106l-1.827-1.343c-1.146-0.843-2.686-0.847-3.833-0.007l-3.354,2.511v17.117
		c0,2.238,1.844,4.053,4.066,4.053V28.461c0-1.487,1.219-2.737,2.706-2.737h7.804c1.487,0,2.684,1.25,2.684,2.737v16.604h16.234
		c2.239,0,4.051-1.807,4.051-4.044V23.459l-2.804-2.005C38.82,20.611,37.279,20.66,36.131,21.499z M38.75,38.079
		c0,1.09-0.915,1.974-2.004,1.974h-8.258c-1.089,0-1.985-0.884-1.985-1.974v-6.585H38.75V38.079z M38.75,28.988H26.502v-1.283
		c0-1.09,0.895-1.98,1.984-1.98h8.259c1.09,0,2.004,0.891,2.004,1.98V28.988z"/>
	<path d="M2.295,20.171c0.176,0.634,0.654,1.141,1.277,1.354c0.624,0.212,1.312,0.104,1.838-0.291l1.972-1.477
		c1.865-1.36,4.368-1.355,6.229,0.012l1.826,1.344c1.149,0.845,2.694,0.844,3.844,0l1.846-1.358
		c1.634-1.202,3.772-1.346,5.533-0.436c0.015,0.008,0.029,0.019,0.044,0.027c0.212,0.112,0.421,0.231,0.62,0.374l2.238,1.607
		c1.101,0.615,2.458,0.547,3.496-0.215l1.847-1.359c1.634-1.203,3.771-1.347,5.532-0.438c0.015,0.009,0.029,0.015,0.045,0.023
		c0.211,0.112,0.42,0.224,0.619,0.367l2.064,1.473c0.553,0.395,1.268,0.48,1.898,0.228c0.63-0.252,1.089-0.808,1.217-1.475
		l0.919-4.78c0.062-0.319-0.023-0.649-0.229-0.899c-0.207-0.25-0.515-0.396-0.839-0.396H1.975c-0.34,0-0.661,0.159-0.867,0.43
		c-0.206,0.271-0.273,0.623-0.183,0.95L2.295,20.171z"/>
</g>
</svg>
