<?xml version="1.0" encoding="utf-8"?>
<!-- Generator: Adobe Illustrator 16.0.0, SVG Export Plug-In . SVG Version: 6.00 Build 0)  -->
<!DOCTYPE svg PUBLIC "-//W3C//DTD SVG 1.1//EN" "http://www.w3.org/Graphics/SVG/1.1/DTD/svg11.dtd">
<svg version="1.1" id="Layer_1" xmlns="http://www.w3.org/2000/svg" xmlns:xlink="http://www.w3.org/1999/xlink" x="0px" y="0px"
	 width="48px" height="48px" viewBox="0 0 48 48" enable-background="new 0 0 48 48" xml:space="preserve">
<g>
	<path d="M27.555,16.774c-0.271,0-0.521,0.147-0.652,0.385l-6.926,12.579c-0.126,0.228-0.122,0.506,0.011,0.73
		c0.132,0.224,0.374,0.362,0.634,0.362c0.269,0,0.516-0.146,0.646-0.381l6.938-12.572c0.127-0.23,0.124-0.511-0.011-0.738
		C28.062,16.913,27.818,16.774,27.555,16.774z"/>
	<path d="M22.945,20.692c0-2.305-1.307-4.005-3.631-4.005c-2.306,0-3.777,1.827-3.777,4.23c0,2.534,1.619,4.067,3.672,4.067
		C21.159,24.984,22.945,23.511,22.945,20.692z M19.272,23.263c-0.914,0-1.389-1.017-1.389-2.427c0-1.35,0.435-2.427,1.369-2.427
		c0.975,0,1.347,1.058,1.347,2.427C20.599,22.351,20.164,23.263,19.272,23.263z"/>
	<path d="M29.024,22.288c-2.304,0-3.777,1.827-3.777,4.232c0.021,2.532,1.64,4.068,3.672,4.068c1.952,0,3.734-1.474,3.734-4.296
		C32.653,23.988,31.348,22.288,29.024,22.288z M28.982,28.863c-0.912,0-1.39-1.015-1.369-2.425c0-1.349,0.412-2.429,1.369-2.429
		c0.973,0,1.329,1.059,1.329,2.429C30.311,27.954,29.873,28.863,28.982,28.863z"/>
	<path d="M44.308,17.234c-0.733-2.264,0.268-5.432-1.103-7.316c-1.384-1.902-4.718-1.923-6.62-3.308
		c-1.884-1.371-2.926-4.542-5.189-5.276c-2.184-0.709-4.88,1.221-7.301,1.221c-2.42,0-5.117-1.93-7.301-1.221
		c-2.263,0.734-3.305,3.905-5.189,5.276C9.702,7.995,6.37,8.015,4.986,9.917c-1.371,1.884-0.371,5.052-1.104,7.316
		c-0.71,2.183-3.406,4.147-3.406,6.568c0,2.42,2.696,4.385,3.406,6.568c0.733,2.263-0.268,5.432,1.104,7.316
		c1.384,1.902,4.717,1.923,6.62,3.307c1.883,1.372,2.926,4.543,5.188,5.278c2.184,0.708,4.88-1.222,7.301-1.222
		s5.117,1.93,7.301,1.222c2.263-0.735,3.305-3.906,5.189-5.277c1.902-1.384,5.235-1.406,6.62-3.308
		c1.371-1.883,0.37-5.052,1.103-7.315c0.71-2.184,3.406-4.149,3.406-6.569C47.714,21.381,45.018,19.417,44.308,17.234z
		 M24.095,40.446c-9.192,0-16.644-7.452-16.644-16.644S14.903,7.158,24.095,7.158c9.193,0,16.644,7.452,16.644,16.644
		S33.288,40.446,24.095,40.446z"/>
	<path d="M24.095,9.281c-8.007,0-14.521,6.514-14.521,14.521c0,8.008,6.514,14.521,14.521,14.521s14.521-6.513,14.521-14.521
		C38.616,15.795,32.102,9.281,24.095,9.281z M24.095,35.953c-6.7,0-12.15-5.451-12.15-12.15s5.451-12.149,12.15-12.149
		s12.15,5.45,12.15,12.149S30.794,35.953,24.095,35.953z"/>
</g>
</svg>
