<?xml version="1.0" encoding="utf-8"?>
<!-- Generator: Adobe Illustrator 16.0.0, SVG Export Plug-In . SVG Version: 6.00 Build 0)  -->
<!DOCTYPE svg PUBLIC "-//W3C//DTD SVG 1.1//EN" "http://www.w3.org/Graphics/SVG/1.1/DTD/svg11.dtd">
<svg version="1.1" id="Layer_1" xmlns="http://www.w3.org/2000/svg" xmlns:xlink="http://www.w3.org/1999/xlink" x="0px" y="0px"
	 width="48px" height="48px" viewBox="0 0 48 48" enable-background="new 0 0 48 48" xml:space="preserve">
<g>
	<path d="M9.9,5.74c-5.211,0-9.435,4.224-9.435,9.435v15.603c0,5.074,4.113,9.187,9.187,9.187v-3.251H9.144
		c-2.997,0-5.426-2.429-5.426-5.425v-16.91c0-2.997,2.429-5.426,5.426-5.426h29.754c2.997,0,5.426,2.429,5.426,5.426v16.91
		c0,2.996-2.429,5.425-5.426,5.425h-0.427v3.251c5.006,0,9.063-4.058,9.063-9.063V14.927c0-5.074-4.113-9.187-9.187-9.187H9.9z"/>
	<path d="M11.705,34.68V10.577H9.781c-2.204,0-3.991,1.787-3.991,3.992v16.12c0,2.205,1.787,3.992,3.991,3.992H11.705z"/>
	<rect x="29.383" y="10.577" width="5.147" height="24.103"/>
	<rect x="19.13" y="10.577" width="3.786" height="24.103"/>
	<rect x="25.072" y="10.577" width="2.154" height="24.103"/>
	<rect x="13.849" y="10.577" width="3.211" height="24.103"/>
	<path d="M13.437,36.364c-1.172,0-1.731,1.04-1.731,2.352c0.009,1.283,0.525,2.337,1.696,2.337c1.158,0,1.723-0.963,1.723-2.365
		C15.124,37.446,14.65,36.364,13.437,36.364z M13.429,40.251c-0.41,0-0.662-0.495-0.655-1.535c-0.007-1.054,0.258-1.549,0.648-1.549
		c0.427,0,0.643,0.53,0.643,1.535C14.064,39.735,13.841,40.251,13.429,40.251z"/>
	<path d="M17.908,36.364c-1.173,0-1.729,1.04-1.729,2.352c0.006,1.283,0.522,2.337,1.694,2.337c1.159,0,1.724-0.963,1.724-2.365
		C19.597,37.446,19.122,36.364,17.908,36.364z M17.902,40.251c-0.412,0-0.663-0.495-0.656-1.535
		c-0.007-1.054,0.258-1.549,0.648-1.549c0.425,0,0.643,0.53,0.643,1.535C18.537,39.735,18.313,40.251,17.902,40.251z"/>
	<polygon points="20.549,36.993 20.724,37.801 21.589,37.403 21.603,37.403 21.603,40.98 22.618,40.98 22.618,36.428 21.75,36.428 	
		"/>
	<path d="M25.626,40.09l0.422-0.349c0.656-0.586,1.209-1.192,1.209-1.953c0-0.824-0.563-1.424-1.59-1.424
		c-0.613,0-1.144,0.209-1.484,0.468l0.3,0.761c0.237-0.182,0.578-0.377,0.97-0.377c0.524,0,0.746,0.293,0.746,0.664
		c-0.014,0.53-0.497,1.04-1.487,1.925l-0.589,0.53v0.646h3.211v-0.894h-1.707V40.09z"/>
	<path d="M30.238,36.364c-0.997,0-1.709,0.747-1.709,1.633c0,0.879,0.649,1.417,1.417,1.417c0.411,0,0.703-0.119,0.906-0.328
		l0.022,0.006c-0.086,0.342-0.281,0.635-0.573,0.837c-0.244,0.168-0.567,0.258-0.888,0.279c-0.209,0.014-0.333,0.014-0.455,0v0.831
		c0.122,0.007,0.295,0.014,0.476,0c0.705-0.028,1.296-0.244,1.729-0.634c0.495-0.454,0.793-1.145,0.793-2.087
		C31.956,37.257,31.404,36.364,30.238,36.364z M30.817,38.36c-0.097,0.16-0.3,0.3-0.585,0.3c-0.434,0-0.642-0.334-0.642-0.725
		c-0.008-0.475,0.257-0.795,0.62-0.795c0.481,0,0.664,0.474,0.664,0.955C30.875,38.228,30.853,38.297,30.817,38.36z"/>
	<path d="M35.683,38.325c-0.321-0.231-0.76-0.328-1.192-0.328c-0.111,0-0.196,0.004-0.294,0.018l0.098-0.693h1.777v-0.895h-2.517
		l-0.301,2.386c0.189-0.028,0.364-0.039,0.615-0.039c0.907,0,1.277,0.289,1.277,0.756c0,0.481-0.469,0.691-0.908,0.691
		c-0.411,0-0.823-0.125-1.025-0.223l-0.188,0.796c0.251,0.132,0.712,0.258,1.263,0.258c1.222,0,1.947-0.746,1.947-1.59
		C36.234,38.932,36.025,38.555,35.683,38.325z"/>
</g>
<path d="M36.642,10.577V34.68h1.616c2.205,0,3.992-1.787,3.992-3.992v-16.12c0-2.205-1.787-3.992-3.992-3.992H36.642z"/>
</svg>
