<?xml version="1.0" encoding="utf-8"?>
<!-- Generator: Adobe Illustrator 16.0.0, SVG Export Plug-In . SVG Version: 6.00 Build 0)  -->
<!DOCTYPE svg PUBLIC "-//W3C//DTD SVG 1.1//EN" "http://www.w3.org/Graphics/SVG/1.1/DTD/svg11.dtd">
<svg version="1.1" id="Layer_1" xmlns="http://www.w3.org/2000/svg" xmlns:xlink="http://www.w3.org/1999/xlink" x="0px" y="0px"
	 width="48px" height="48px" viewBox="0 0 48 48" enable-background="new 0 0 48 48" xml:space="preserve">
<g>
	<path d="M24.564,9.403c-0.765,0-1.385,0.62-1.385,1.385v15.648c0,0.765,0.62,1.385,1.385,1.385h21.464
		c0.765,0,1.385-0.62,1.385-1.385V10.788c0-0.765-0.62-1.385-1.385-1.385H24.564z M42.809,18.208H27.784v-4.604h15.025V18.208z"/>
	<g>
		<circle cx="11.151" cy="33.739" r="4.858"/>
	</g>
	<g>
		<circle cx="36.566" cy="33.739" r="4.858"/>
	</g>
	<path d="M20.756,13.211c0-0.765-0.62-1.385-1.385-1.385h-5.493c-3.578,0-6.853,2.008-8.475,5.197l-2.18,4.285
		c-0.635,1.25-0.967,2.632-0.967,4.034v4.901H1.785c-0.765,0-1.385,0.62-1.385,1.385v0.704c0,0.765,0.62,1.385,1.385,1.385h2.894
		c0.011-3.56,2.91-6.453,6.473-6.453s6.462,2.893,6.473,6.453h12.468c0.004-1.278,0.382-2.47,1.028-3.474h-7.53
		c-1.565,0-2.833-1.269-2.833-2.833V13.211z M17.848,21.682H6.57l1.628-3.321c1.089-2.22,3.346-3.626,5.818-3.626h3.832V21.682z"/>
	<path d="M43.039,33.718h1.616c0.765,0,1.385-0.62,1.385-1.385v-0.704c0-0.765-0.62-1.385-1.385-1.385h-2.644
		C42.657,31.248,43.035,32.439,43.039,33.718z"/>
</g>
</svg>
