<?xml version="1.0" encoding="utf-8"?>
<!-- Generator: Adobe Illustrator 16.0.0, SVG Export Plug-In . SVG Version: 6.00 Build 0)  -->
<!DOCTYPE svg PUBLIC "-//W3C//DTD SVG 1.1//EN" "http://www.w3.org/Graphics/SVG/1.1/DTD/svg11.dtd">
<svg version="1.1" id="Layer_1" xmlns="http://www.w3.org/2000/svg" xmlns:xlink="http://www.w3.org/1999/xlink" x="0px" y="0px"
	 width="48px" height="48px" viewBox="0 0 48 48" enable-background="new 0 0 48 48" xml:space="preserve">
<g>
	<path d="M45.338,28.517c-0.199-0.427-0.56-0.757-1.003-0.918s-0.932-0.138-1.359,0.063l-12.151,5.71
		c-1.96-2.204-4.878-3.235-7.78-2.768l-9.588-20.555L3.832,6.716C3.386,6.562,2.896,6.591,2.472,6.799s-0.748,0.575-0.9,1.022
		L1.036,9.396c-0.315,0.926,0.179,1.933,1.104,2.25l7.576,2.597l8.716,18.686c-2.62,2.525-3.38,6.396-1.796,9.791
		c2.009,4.306,7.105,6.152,11.412,4.144c3.438-1.604,5.307-5.175,4.889-8.779l12.231-5.749c0.885-0.416,1.267-1.469,0.854-2.355
		L45.338,28.517z M25.83,42.143c-1.682,0.785-3.688,0.055-4.472-1.626c-0.784-1.682-0.054-3.687,1.626-4.472
		c1.682-0.784,3.688-0.055,4.472,1.626C28.241,39.353,27.511,41.36,25.83,42.143z"/>
	<path d="M34.249,11.292l-4.655-9.979c-0.414-0.888-1.47-1.271-2.357-0.857L16.414,5.504c-0.888,0.414-1.272,1.47-0.858,2.358
		l4.655,9.978L34.249,11.292z"/>
	<path d="M24.882,27.855c2.214,0.094,4.325,0.845,6.135,2.171l15.019-7.006c0.888-0.414,1.272-1.47,0.858-2.358l-3.904-8.371
		c-0.199-0.427-0.559-0.756-1.001-0.917c-0.442-0.161-0.93-0.139-1.356,0.06l-19.226,8.968L24.882,27.855z"/>
</g>
</svg>
