<?xml version="1.0" encoding="utf-8"?>
<!-- Generator: Adobe Illustrator 16.0.0, SVG Export Plug-In . SVG Version: 6.00 Build 0)  -->
<!DOCTYPE svg PUBLIC "-//W3C//DTD SVG 1.1//EN" "http://www.w3.org/Graphics/SVG/1.1/DTD/svg11.dtd">
<svg version="1.1" id="Layer_1" xmlns="http://www.w3.org/2000/svg" xmlns:xlink="http://www.w3.org/1999/xlink" x="0px" y="0px"
	 width="48px" height="48px" viewBox="0 0 48 48" enable-background="new 0 0 48 48" xml:space="preserve">
<g>
	<path d="M23.523,16.3c0-4.66-3.778-8.438-8.438-8.438H9.453c-4.66,0-8.438,3.778-8.438,8.438v22.104
		c0,4.66,3.778,8.438,8.438,8.438h5.633c4.659,0,8.438-3.778,8.438-8.438V16.3z M20.295,38.175c0,3.003-2.436,5.438-5.439,5.438
		H9.729c-3.004,0-5.438-2.435-5.438-5.438V16.53c0-3.004,2.435-5.439,5.438-5.439h5.126c3.004,0,5.439,2.435,5.439,5.439V38.175z"/>
	<polygon points="5.461,31.067 19.172,17.356 19.172,14.852 5.461,28.563 	"/>
	<path d="M10.085,12.213c-2.557,0-4.624,2.061-4.624,4.617v4.891l9.533-9.507H10.085z"/>
	<path d="M5.461,37.863c0,2.556,2.071,4.628,4.627,4.628h4.456c2.556,0,4.628-2.072,4.628-4.628v-18.3L5.461,33.274V37.863z"/>
	<path d="M47.483,16.3c0-4.66-3.778-8.438-8.438-8.438H33.46c-4.661,0-8.438,3.778-8.438,8.438v22.104
		c0,4.66,3.777,8.438,8.438,8.438h5.585c4.66,0,8.438-3.778,8.438-8.438V16.3z M44.254,38.175c0,3.003-2.435,5.438-5.438,5.438
		h-5.126c-3.005,0-5.439-2.435-5.439-5.438V16.53c0-3.004,2.435-5.439,5.439-5.439h5.126c3.004,0,5.438,2.435,5.438,5.439V38.175z"
		/>
	<polygon points="29.42,31.067 43.131,17.356 43.131,14.852 29.42,28.563 	"/>
	<path d="M34.04,12.213c-2.556,0-4.62,2.061-4.62,4.617v4.891l9.544-9.507H34.04z"/>
	<path d="M29.42,37.863c0,2.556,2.072,4.628,4.628,4.628h4.455c2.557,0,4.628-2.072,4.628-4.628v-18.3L29.42,33.274V37.863z"/>
	<path d="M2.021,1.544c-0.556,0-1.006,0.451-1.006,1.006c0,0.555,0.45,1.006,1.006,1.006h16.637V3.75
		c0,1.585,1.284,2.848,2.869,2.848h5.46c1.587,0,2.854-1.262,2.854-2.848V3.557h16.637c0.556,0,1.006-0.451,1.006-1.006
		c0-0.556-0.45-1.006-1.006-1.006H2.021z"/>
</g>
</svg>
