<?xml version="1.0" encoding="utf-8"?>
<!-- Generator: Adobe Illustrator 16.0.0, SVG Export Plug-In . SVG Version: 6.00 Build 0)  -->
<!DOCTYPE svg PUBLIC "-//W3C//DTD SVG 1.1//EN" "http://www.w3.org/Graphics/SVG/1.1/DTD/svg11.dtd">
<svg version="1.1" id="Layer_1" xmlns="http://www.w3.org/2000/svg" xmlns:xlink="http://www.w3.org/1999/xlink" x="0px" y="0px"
	 width="48px" height="48px" viewBox="0 0 48 48" enable-background="new 0 0 48 48" xml:space="preserve">
<g>
	<path d="M45.894,26.427L21.674,2.233c-1.069-1.067-2.539-1.639-4.048-1.603L4.903,0.957C2.651,1.013,0.838,2.828,0.785,5.078
		L0.49,17.785c-0.037,1.51,0.558,2.958,1.627,4.026l24.219,24.192c2.156,2.154,5.646,2.197,7.8,0.042l11.761-11.774
		C48.052,32.116,48.049,28.581,45.894,26.427z M9.135,15.434C7.44,13.742,7.439,10.999,9.13,9.304
		c1.692-1.693,4.437-1.693,6.13-0.003c1.693,1.692,1.694,4.437,0.003,6.129C13.571,17.124,10.827,17.124,9.135,15.434z
		 M17.313,22.839c-0.603-0.596-1.043-1.339-1.177-1.797l1.216-0.747c0.157,0.48,0.488,1.132,0.997,1.634
		c0.548,0.541,1.061,0.6,1.403,0.256c0.324-0.329,0.26-0.764-0.152-1.618c-0.575-1.17-0.667-2.219,0.091-2.987
		c0.888-0.9,2.32-0.848,3.565,0.38c0.594,0.588,0.908,1.146,1.083,1.596l-1.216,0.701c-0.111-0.309-0.34-0.831-0.857-1.341
		c-0.518-0.51-0.999-0.522-1.269-0.247c-0.333,0.336-0.182,0.778,0.246,1.708c0.59,1.265,0.549,2.183-0.183,2.928
		C20.185,24.189,18.761,24.268,17.313,22.839z M23.085,28.381l0.929-1.756l-1.512-1.493l-1.711,0.985l-1.238-1.222l6.82-3.686
		l1.567,1.547l-3.572,6.891L23.085,28.381z M24.686,29.96l5.207-5.277l1.2,1.182l-4.221,4.274l2.099,2.072l-0.989,1.002
		L24.686,29.96z M35.795,32.441l-2.058-2.033l-1.083,1.096l1.942,1.917l-0.959,0.972l-1.941-1.917l-1.236,1.251l2.168,2.141
		l-0.965,0.979l-3.366-3.322l5.209-5.277l3.255,3.215L35.795,32.441z"/>
	<path d="M23.557,24.411l1.166,1.151l1.499-2.741C25.835,23.057,23.557,24.411,23.557,24.411z"/>
</g>
</svg>
