<?xml version="1.0" encoding="utf-8"?>
<!-- Generator: Adobe Illustrator 16.0.0, SVG Export Plug-In . SVG Version: 6.00 Build 0)  -->
<!DOCTYPE svg PUBLIC "-//W3C//DTD SVG 1.1//EN" "http://www.w3.org/Graphics/SVG/1.1/DTD/svg11.dtd">
<svg version="1.1" id="Layer_1" xmlns="http://www.w3.org/2000/svg" xmlns:xlink="http://www.w3.org/1999/xlink" x="0px" y="0px"
	 width="48px" height="48px" viewBox="0 0 48 48" enable-background="new 0 0 48 48" xml:space="preserve">
<g>
	<path d="M4.965,11.61c-0.396,0-0.781-0.129-1.034-0.258l-0.191,0.772c0.232,0.129,0.7,0.25,1.171,0.25
		c1.134,0,1.666-0.587,1.666-1.279c0-0.582-0.342-0.962-1.072-1.231C4.972,9.662,4.739,9.546,4.739,9.282
		c0-0.214,0.194-0.398,0.6-0.398c0.403,0,0.698,0.117,0.863,0.196l0.209-0.754c-0.245-0.11-0.588-0.208-1.054-0.208
		c-0.976,0-1.563,0.54-1.563,1.245c0,0.599,0.447,0.979,1.133,1.218c0.498,0.178,0.693,0.325,0.693,0.582
		C5.621,11.433,5.395,11.61,4.965,11.61z"/>
	<path d="M8.819,12.381c1.078,0,1.72-0.606,1.72-1.88V8.245H9.625v2.317c0,0.729-0.285,1.072-0.775,1.072
		c-0.479,0-0.766-0.362-0.766-1.072V8.245H7.169v2.244C7.169,11.807,7.779,12.381,8.819,12.381z"/>
	<path d="M12.311,10.838c0.115,0.013,0.197,0.018,0.318,0.018c0.552,0,1.024-0.134,1.344-0.435c0.245-0.233,0.379-0.576,0.379-0.98
		c0-0.404-0.175-0.747-0.438-0.955c-0.276-0.22-0.711-0.33-1.286-0.33c-0.57,0-1.002,0.037-1.287,0.086v4.059h0.971V10.838z
		 M12.311,8.897c0.057-0.021,0.197-0.038,0.385-0.038c0.467,0,0.723,0.227,0.723,0.606c0,0.423-0.296,0.674-0.792,0.674
		c-0.135,0-0.2-0.006-0.315-0.025V8.897z"/>
	<polygon points="17.509,11.558 15.851,11.558 15.851,10.53 17.337,10.53 17.337,9.787 15.851,9.787 15.851,8.93 17.452,8.93 
		17.452,8.245 14.938,8.245 14.938,12.301 17.509,12.301 	"/>
	<path d="M19.108,10.701h0.319c0.381,0,0.56,0.136,0.669,0.65c0.122,0.508,0.22,0.893,0.287,0.95h0.955
		c-0.08-0.114-0.225-0.691-0.353-1.157c-0.104-0.38-0.279-0.649-0.564-0.765V10.36c0.343-0.129,0.744-0.49,0.744-1.016
		c0-0.38-0.129-0.668-0.373-0.864c-0.293-0.233-0.732-0.325-1.346-0.325c-0.494,0-0.968,0.037-1.253,0.086v4.059h0.914V10.701z
		 M19.108,8.877c0.114-0.01,0.214-0.029,0.44-0.029c0.429,0.006,0.697,0.194,0.697,0.575c0,0.361-0.266,0.593-0.731,0.593h-0.406
		V8.877z"/>
	<path d="M22.702,10.715c0.029-0.515,0.049-1.156,0.073-1.727h0.012c0.098,0.571,0.238,1.15,0.374,1.634l0.44,1.622h0.729
		l0.501-1.634c0.161-0.484,0.332-1.051,0.459-1.622h0.021c0,0.628,0.019,1.219,0.035,1.713l0.061,1.6h0.915l-0.227-4.056h-1.218
		l-0.445,1.344c-0.132,0.46-0.272,0.941-0.391,1.456h-0.017c-0.095-0.514-0.222-0.972-0.352-1.448l-0.403-1.351h-1.242l-0.266,4.056
		h0.863L22.702,10.715z"/>
	<path d="M27.984,11.272h1.181l0.321,1.028h1.003l-1.281-4.056h-1.224l-1.264,4.056h0.971L27.984,11.272z M28.364,9.662
		c0.065-0.24,0.128-0.561,0.189-0.789h0.013c0.063,0.229,0.133,0.543,0.207,0.789l0.258,0.868h-0.913L28.364,9.662z"/>
	<path d="M31.902,10.701h0.347c0.379,0,0.557,0.136,0.667,0.65c0.124,0.508,0.22,0.893,0.287,0.95h0.956
		c-0.08-0.114-0.206-0.691-0.334-1.157c-0.105-0.38-0.266-0.649-0.551-0.765V10.36c0.343-0.129,0.728-0.49,0.728-1.016
		c0-0.38-0.134-0.668-0.38-0.864c-0.293-0.233-0.748-0.325-1.362-0.325c-0.496,0-0.984,0.037-1.271,0.086v4.059h0.913V10.701z
		 M31.902,8.877c0.116-0.01,0.229-0.029,0.456-0.029c0.43,0.006,0.701,0.194,0.701,0.575c0,0.361-0.26,0.593-0.724,0.593h-0.434
		V8.877z"/>
	<path d="M35.617,10.966l0.348-0.441l1.001,1.776h1.093l-1.44-2.334l1.365-1.721h-1.145l-0.941,1.343
		c-0.091,0.146-0.224,0.259-0.28,0.422V8.245h-0.973v4.056h0.973V10.966z"/>
	<polygon points="40.985,11.558 39.33,11.558 39.33,10.53 40.871,10.53 40.871,9.787 39.33,9.787 39.33,8.93 40.985,8.93 
		40.985,8.245 38.358,8.245 38.358,12.301 40.985,12.301 	"/>
	<polygon points="42.528,12.301 43.498,12.301 43.498,8.93 44.528,8.93 44.528,8.245 41.386,8.245 41.386,8.93 42.528,8.93 	"/>
	<path d="M0.578,16.133L0.578,16.133c0.001-0.009,0-0.016,0-0.023V16.133z"/>
	<path d="M1.359,15.671h17.538h10.476H46.91c0.15,0,0.284-0.086,0.336-0.226c0.053-0.139,0.013-0.293-0.101-0.391l-1.562-1.364
		c-0.474-0.41-1.079-0.647-1.704-0.647H26.341h-4.444H4.358c-0.637,0-1.251,0.247-1.727,0.668l-1.51,1.345
		c-0.112,0.098-0.15,0.25-0.097,0.389C1.076,15.583,1.211,15.671,1.359,15.671z"/>
	<path d="M40.647,21.19l-1.196,0.871c-1.188,0.875-2.79,0.816-3.979-0.059l-1.165-0.84c-0.729-0.538-1.713-0.506-2.443,0.028
		l-1.193,0.862c-1.108,0.815-2.57,0.813-3.728,0.104l-0.813-0.581l-0.607-0.446c-0.73-0.539-1.713-0.54-2.445-0.005l-1.638,1.226
		c-1.118,0.558-2.468,0.415-3.507-0.348l-1.166-0.84c-0.729-0.538-1.712-0.506-2.442,0.028l-1.195,0.862
		c-1.189,0.876-2.79,0.808-3.981-0.067l-1.165-0.856c-0.729-0.539-1.713-0.54-2.443-0.005l-2.141,1.6v10.914
		c0,1.427,1.179,2.584,2.595,2.584L23.43,36.22c0.035,0.001,0.068,0.002,0.103,0.002l18.76-0.005c1.427,0,2.578-1.152,2.578-2.579
		V22.441l-1.784-1.279C42.356,20.625,41.378,20.656,40.647,21.19z M42.3,31.762c0,0.695-0.567,1.274-1.262,1.274H7.346
		c-0.694,0-1.263-0.58-1.263-1.274v-4.21H42.3V31.762z M42.3,25.953H6.083v-0.805c0-0.695,0.568-1.252,1.263-1.252h33.692
		c0.694,0,1.262,0.557,1.262,1.252V25.953z"/>
	<path d="M47.022,16.299H29.484l0,0H1.33c-0.218,0-0.423,0.111-0.555,0.284c-0.13,0.172-0.173,0.402-0.114,0.61l0.872,3.148
		c0.112,0.405,0.418,0.729,0.815,0.864c0.397,0.136,0.836,0.066,1.172-0.186l1.257-0.94c1.189-0.867,2.785-0.864,3.971,0.007
		l1.166,0.857c0.731,0.539,1.717,0.538,2.45,0l1.176-0.867c1.044-0.766,2.407-0.857,3.529-0.277c0.01,0.004,0.019,0.012,0.028,0.017
		c0.135,0.071,0.268,0.147,0.394,0.239l1.428,1.025c0.501,0.279,1.083,0.336,1.616,0.171c0.188-0.036,0.368-0.113,0.524-0.231
		l0.935-0.7l0.332-0.245c0.122-0.09,0.25-0.171,0.381-0.243c0.019-0.01,0.038-0.021,0.059-0.03c0.007-0.005,0.015-0.008,0.023-0.013
		c1.116-0.564,2.463-0.464,3.499,0.296l1.165,0.857c0.73,0.539,1.716,0.538,2.45,0l1.178-0.867c1.041-0.766,2.404-0.857,3.527-0.277
		c0.01,0.004,0.018,0.012,0.028,0.017c0.135,0.071,0.267,0.147,0.395,0.239l1.428,1.025c0.701,0.392,1.566,0.349,2.229-0.138
		l1.177-0.867c1.041-0.767,2.404-0.858,3.526-0.279c0.011,0.006,0.02,0.01,0.03,0.015c0.134,0.072,0.267,0.144,0.395,0.234
		l1.315,0.939c0.352,0.252,0.809,0.307,1.211,0.146c0.402-0.16,0.694-0.515,0.776-0.94l0.586-3.052
		c0.038-0.204-0.016-0.418-0.147-0.578S47.229,16.299,47.022,16.299z"/>
</g>
</svg>
