<?xml version="1.0" encoding="utf-8"?>
<!-- Generator: Adobe Illustrator 16.0.0, SVG Export Plug-In . SVG Version: 6.00 Build 0)  -->
<!DOCTYPE svg PUBLIC "-//W3C//DTD SVG 1.1//EN" "http://www.w3.org/Graphics/SVG/1.1/DTD/svg11.dtd">
<svg version="1.1" id="Layer_1" xmlns="http://www.w3.org/2000/svg" xmlns:xlink="http://www.w3.org/1999/xlink" x="0px" y="0px"
	 width="48px" height="48px" viewBox="0 0 48 48" enable-background="new 0 0 48 48" xml:space="preserve">
<g>
	<path d="M5.949,34.526c-0.5,0-0.732,0.576-0.732,1.298c0,0.755,0.255,1.299,0.742,1.299c0.479,0,0.711-0.489,0.711-1.299
		C6.67,35.093,6.473,34.526,5.949,34.526z"/>
	<path d="M11.156,37.523c-0.513,0-0.733,0.578-0.733,1.299c-0.011,0.755,0.245,1.298,0.733,1.298c0.477,0,0.709-0.487,0.709-1.298
		C11.865,38.089,11.678,37.523,11.156,37.523z"/>
	<path d="M8.54,29.501c-4.327,0-7.832,3.507-7.832,7.833c0,4.327,3.505,7.834,7.832,7.834c4.326,0,7.835-3.507,7.835-7.834
		C16.375,33.008,12.866,29.501,8.54,29.501z M3.961,35.87c0-1.287,0.788-2.265,2.021-2.265c1.243,0,1.941,0.91,1.941,2.144
		c0,1.509-0.955,2.296-1.997,2.296C4.828,38.044,3.961,37.225,3.961,35.87z M7.028,40.791c-0.069,0.124-0.2,0.201-0.343,0.201
		c-0.14,0-0.269-0.074-0.339-0.194s-0.072-0.269-0.004-0.391l3.7-6.636c0.07-0.126,0.202-0.204,0.347-0.204
		c0.141,0,0.271,0.075,0.342,0.196c0.071,0.122,0.073,0.271,0.004,0.395L7.028,40.791z M11.121,41.043
		c-1.086,0-1.953-0.821-1.963-2.176c0-1.287,0.787-2.265,2.02-2.265c1.244,0,1.941,0.91,1.941,2.143
		C13.119,40.254,12.166,41.043,11.121,41.043z"/>
	<path d="M2.102,9.721H46.31c0.235,0,0.446-0.145,0.528-0.365c0.083-0.221,0.019-0.468-0.158-0.623l-2.466-2.151
		c-0.746-0.646-1.7-1.021-2.688-1.021H6.834c-1.003,0-1.973,0.386-2.723,1.051l-2.385,2.12C1.552,8.888,1.49,9.137,1.574,9.356
		C1.657,9.575,1.867,9.721,2.102,9.721z"/>
	<path d="M36.424,18.413l-1.884,1.372c-1.879,1.382-4.405,1.289-6.284-0.093l-1.837-1.325c-1.152-0.848-2.703-0.799-3.858,0.045
		l-1.883,1.36c-1.881,1.382-4.405,1.275-6.283-0.107l-1.839-1.352c-1.152-0.849-2.716-0.852-3.87-0.008l-3.387,2.526v7.785
		c1.053-0.37,2.098-0.576,3.229-0.576c0.971,0,1.918,0.157,2.797,0.42h27.721v6.634c0,1.097-0.906,2-2.003,2H17.826
		c0.003,0.053,0.004,0.162,0.004,0.246c0,1.756-0.487,3.395-1.334,4.794l22.528-0.008c2.253,0,4.074-1.819,4.074-4.071V20.385
		l-2.819-2.018C39.126,17.52,37.58,17.568,36.424,18.413z M39.045,25.935H9.564v-1.277c0-1.096,0.89-1.986,1.985-1.986h25.492
		c1.097,0,2.003,0.89,2.003,1.986V25.935z"/>
	<path d="M47.33,11.12c-0.208-0.251-0.519-0.398-0.844-0.398H2.056c-0.342,0-0.666,0.161-0.872,0.433
		c-0.208,0.273-0.275,0.627-0.185,0.957l1.378,4.964c0.178,0.639,0.659,1.149,1.286,1.363s1.32,0.104,1.849-0.293l1.984-1.485
		c1.878-1.369,4.396-1.364,6.269,0.012l1.837,1.353c1.156,0.85,2.712,0.849,3.867,0l1.858-1.367
		c1.644-1.209,3.796-1.353,5.567-0.438c0.015,0.008,0.029,0.019,0.045,0.027c0.212,0.112,0.422,0.233,0.622,0.377l2.252,1.616
		c1.106,0.62,2.473,0.551,3.519-0.216l1.858-1.367c1.644-1.211,3.794-1.356,5.566-0.44c0.017,0.009,0.029,0.016,0.045,0.024
		c0.212,0.113,0.422,0.225,0.623,0.369l2.078,1.482c0.556,0.397,1.275,0.483,1.909,0.229c0.635-0.254,1.097-0.813,1.226-1.484
		l0.923-4.811C47.624,11.704,47.539,11.372,47.33,11.12z"/>
</g>
</svg>
