<?xml version="1.0" encoding="utf-8"?>
<!-- Generator: Adobe Illustrator 16.0.0, SVG Export Plug-In . SVG Version: 6.00 Build 0)  -->
<!DOCTYPE svg PUBLIC "-//W3C//DTD SVG 1.1//EN" "http://www.w3.org/Graphics/SVG/1.1/DTD/svg11.dtd">
<svg version="1.1" id="Layer_1" xmlns="http://www.w3.org/2000/svg" xmlns:xlink="http://www.w3.org/1999/xlink" x="0px" y="0px"
	 width="48px" height="48px" viewBox="0 0 48 48" enable-background="new 0 0 48 48" xml:space="preserve">
<g>
	<path d="M17.593,28.362c0.391,1.199,1.509,2.01,2.769,2.01h20.487c1.309,0,2.457-0.873,2.807-2.135l3.778-13.629
		c0.243-0.877,0.063-1.817-0.488-2.542c-0.551-0.724-1.408-1.149-2.318-1.149H14.36l-2.735-3.809c-1.438-2-3.749-3.187-6.213-3.187
		H2.544c-1.19,0-2.158,0.958-2.158,2.15s0.968,2.149,2.158,2.149h2.404c1.362,0,2.641,0.66,3.43,1.771l3.854,5.428v16.957
		c0,2.756,2.234,4.99,4.989,4.99h23.083c1.191,0,2.157-0.958,2.157-2.149c0-1.191-0.966-2.149-2.157-2.149H17.793
		c-0.656,0-1.188-0.532-1.188-1.188v-6.547L17.593,28.362z"/>
	<circle cx="16.849" cy="42.733" r="3.247"/>
	<circle cx="37.871" cy="42.733" r="3.247"/>
</g>
</svg>
