<?xml version="1.0" encoding="utf-8"?>
<!-- Generator: Adobe Illustrator 16.0.0, SVG Export Plug-In . SVG Version: 6.00 Build 0)  -->
<!DOCTYPE svg PUBLIC "-//W3C//DTD SVG 1.1//EN" "http://www.w3.org/Graphics/SVG/1.1/DTD/svg11.dtd">
<svg version="1.1" id="Layer_1" xmlns="http://www.w3.org/2000/svg" xmlns:xlink="http://www.w3.org/1999/xlink" x="0px" y="0px"
	 width="48px" height="48px" viewBox="0 0 48 48" enable-background="new 0 0 48 48" xml:space="preserve">
<g>
	<path d="M27.204,13.594c-2.671,0-4.836,2.166-4.836,4.836c0,2.671,2.165,4.837,4.836,4.837c2.67,0,4.836-2.167,4.836-4.837
		C32.04,15.76,29.874,13.594,27.204,13.594z M29.939,18.346c0,0.336-0.273,0.609-0.609,0.609h-4.301c-0.337,0-0.61-0.273-0.61-0.609
		c0-0.337,0.273-0.61,0.61-0.61h4.301C29.667,17.736,29.939,18.009,29.939,18.346z"/>
	<path d="M14.021,3.292c0-1.702-1.379-3.081-3.081-3.081h-0.065c-1.702,0-3.081,1.379-3.081,3.081H14.021L14.021,3.292z"/>
	<path d="M38.055,7.786H12.993V5.282H8.821v37.295c-1.17,0-2.118,0.948-2.118,2.118v2.696h8.473v-2.696
		c0-1.17-0.948-2.118-2.118-2.118h-0.064V28.648h25.062c3.964,0,7.162-3.248,7.162-7.212V15C45.217,11.035,42.02,7.786,38.055,7.786
		z M41.109,21.436c0,1.669-1.386,3.04-3.054,3.04H12.994V11.959h25.062c1.668,0,3.054,1.372,3.054,3.041V21.436z"/>
</g>
</svg>
