<?xml version="1.0" encoding="utf-8"?>
<!-- Generator: Adobe Illustrator 16.0.0, SVG Export Plug-In . SVG Version: 6.00 Build 0)  -->
<!DOCTYPE svg PUBLIC "-//W3C//DTD SVG 1.1//EN" "http://www.w3.org/Graphics/SVG/1.1/DTD/svg11.dtd">
<svg version="1.1" id="Layer_1" xmlns="http://www.w3.org/2000/svg" xmlns:xlink="http://www.w3.org/1999/xlink" x="0px" y="0px"
	 width="48px" height="48px" viewBox="0 0 48 48" enable-background="new 0 0 48 48" xml:space="preserve">
<g>
	<path d="M47.11,36.812c-0.318-0.321-0.754-0.502-1.207-0.503l-1.518-0.002c-0.995-3.432-4.156-5.944-7.908-5.944
		c-3.745,0-6.901,2.501-7.902,5.923L16.901,36.27c-0.795-2.719-2.904-4.814-5.616-5.601l0.101-17.856
		C11.4,10.3,10.395,7.888,8.6,6.128L4.42,2.031C4.097,1.714,3.66,1.539,3.206,1.544C2.753,1.55,2.32,1.736,2.004,2.062L0.891,3.209
		C0.236,3.883,0.251,4.96,0.924,5.616l4.09,3.984c0.908,0.885,1.417,2.101,1.41,3.369l-0.1,17.824
		c-3.314,1.116-5.563,4.163-5.585,7.763c-0.024,4.565,3.642,8.262,8.206,8.288c3.644,0.021,6.735-2.313,7.854-5.612l11.883,0.016
		c1.104,3.25,4.174,5.592,7.796,5.592c3.615,0,6.681-2.333,7.789-5.572l1.624,0.002c0.938,0.001,1.7-0.756,1.706-1.695l0.009-1.552
		C47.608,37.569,47.43,37.133,47.11,36.812z M8.96,41.834c-1.782-0.01-3.225-1.468-3.215-3.25c0.011-1.783,1.469-3.224,3.251-3.214
		c1.782,0.01,3.225,1.469,3.215,3.251C12.201,40.402,10.742,41.845,8.96,41.834z M36.478,41.756c-1.739,0-3.156-1.415-3.156-3.155
		s1.417-3.156,3.156-3.156c1.74,0,3.156,1.416,3.156,3.156S38.218,41.756,36.478,41.756z"/>
	<path d="M18.444,33.446l9.133,0.052c1.715-2.979,4.876-5.014,8.521-5.148l0.03-5.382c0.006-0.941-0.754-1.708-1.694-1.713
		l-20.381-0.115l-0.044,7.9C15.894,30.031,17.418,31.551,18.444,33.446z"/>
</g>
</svg>
