<?xml version="1.0" encoding="utf-8"?>
<!-- Generator: Adobe Illustrator 16.0.0, SVG Export Plug-In . SVG Version: 6.00 Build 0)  -->
<!DOCTYPE svg PUBLIC "-//W3C//DTD SVG 1.1//EN" "http://www.w3.org/Graphics/SVG/1.1/DTD/svg11.dtd">
<svg version="1.1" id="Layer_1" xmlns="http://www.w3.org/2000/svg" xmlns:xlink="http://www.w3.org/1999/xlink" x="0px" y="0px"
	 width="48px" height="48px" viewBox="0 0 48 48" enable-background="new 0 0 48 48" xml:space="preserve">
<g>
	<path d="M16.031,26.87h15.938c0.724,0,1.414-0.29,1.909-0.817c0.493-0.527,0.748-1.227,0.701-1.948L33.724,10.75
		c-0.055-0.868-0.776-1.544-1.646-1.544h-2.127V6.534c0-1.476-1.202-2.674-2.678-2.674h-6.546c-1.475,0-2.677,1.199-2.677,2.674
		v2.672h-2.127c-0.87,0-1.59,0.676-1.646,1.544L13.421,24.11c-0.046,0.721,0.208,1.418,0.703,1.945
		C14.618,26.583,15.308,26.87,16.031,26.87z M19.724,6.813c0-0.692,0.59-1.234,1.283-1.234h5.986c0.692,0,1.237,0.542,1.237,1.234
		v2.392h-8.507V6.813z"/>
	<path d="M39.882,29.148H8.119c-3.858,0-6.997,3.146-6.997,6.996s3.139,6.996,6.997,6.996h31.763c3.858,0,6.996-3.146,6.996-6.996
		S43.74,29.148,39.882,29.148z M39.882,39.421H8.119c-1.808,0-3.28-1.471-3.28-3.277c0-1.807,1.472-3.277,3.28-3.277h31.763
		c1.808,0,3.279,1.47,3.279,3.277C43.161,37.95,41.69,39.421,39.882,39.421z"/>
	<circle cx="8.11" cy="36.068" r="2.311"/>
	<circle cx="39.818" cy="36.068" r="2.311"/>
</g>
</svg>
