<?xml version="1.0" encoding="utf-8"?>
<!-- Generator: Adobe Illustrator 16.0.0, SVG Export Plug-In . SVG Version: 6.00 Build 0)  -->
<!DOCTYPE svg PUBLIC "-//W3C//DTD SVG 1.1//EN" "http://www.w3.org/Graphics/SVG/1.1/DTD/svg11.dtd">
<svg version="1.1" id="Layer_1" xmlns="http://www.w3.org/2000/svg" xmlns:xlink="http://www.w3.org/1999/xlink" x="0px" y="0px"
	 width="48px" height="48px" viewBox="0 0 48 48" enable-background="new 0 0 48 48" xml:space="preserve">
<g>
	<path d="M8.603,34.352c-2.957,0-5.355,2.397-5.355,5.355c0,2.958,2.398,5.355,5.355,5.355c2.958,0,5.357-2.398,5.357-5.355
		C13.96,36.749,11.561,34.352,8.603,34.352z M8.603,41.844c-1.179,0-2.136-0.959-2.136-2.137c0-1.178,0.957-2.137,2.136-2.137
		c1.181,0,2.14,0.959,2.14,2.137C10.742,40.885,9.783,41.844,8.603,41.844z"/>
	<path d="M31.649,31.172c-3.835,0-6.944,3.11-6.944,6.945c0,3.836,3.109,6.946,6.944,6.946c3.836,0,6.947-3.109,6.947-6.946
		C38.597,34.282,35.485,31.172,31.649,31.172z M31.65,40.237c-1.169,0-2.12-0.951-2.12-2.12c0-1.168,0.951-2.119,2.12-2.119
		s2.119,0.951,2.119,2.119C33.77,39.286,32.819,40.237,31.65,40.237z"/>
	<path d="M31.649,29.563c0.861,0,1.692,0.139,2.478,0.377L30.562,8.875h0.017c0.548,0,0.993-0.445,0.993-0.994
		c0-1.819-1.475-3.293-3.294-3.293H13.361c-1.818,0-3.293,1.475-3.293,3.293c0,0.549,0.445,0.994,0.994,0.994h1.183v10.751H9.429
		c-0.823,0-1.61,0.11-2.384,0.316V14.24c0-0.208,0.176-2.067-1.012-3.269c-0.13-0.131-0.253-0.249-0.377-0.354
		c-0.333-0.281-0.799-0.344-1.194-0.161c-0.396,0.184-0.648,0.58-0.648,1.016c0,0.381,0.214,0.729,0.553,0.902
		c0.066,0.034,0.122,0.068,0.153,0.1c0.482,0.481,0.418,1.423,0.418,1.752v6.61c-2.671,1.549-4.498,4.428-4.498,7.742v10.213
		c0,0.67,0.543,1.213,1.213,1.213c-0.003-0.141-0.015-0.192-0.015-0.283c0-3.84,3.125-6.973,6.965-6.973
		c3.842,0,6.966,3.136,6.966,6.977c0,0.09-0.01,0.138-0.013,0.279h7.749c-0.135-0.632-0.21-1.235-0.21-1.873
		C23.095,33.415,26.934,29.563,31.649,29.563z M16.544,19.626c-0.589,0-1.065-0.477-1.065-1.065V9.94
		c0-0.588,0.477-1.065,1.065-1.065h9.851c0.52,0,0.964,0.375,1.051,0.888l1.458,8.62c0.052,0.309-0.034,0.626-0.237,0.865
		c-0.202,0.24-0.5,0.378-0.813,0.378H16.544z"/>
	<path d="M40.143,35.719V26.41c0-0.797-0.646-1.443-1.443-1.443h-1.788V8.874c0-0.583-0.472-1.055-1.055-1.055
		c-0.582,0-1.055,0.472-1.055,1.055V30.16c3.163,1.251,5.421,4.331,5.421,7.946c0,0.265-0.033,0.565-0.057,0.775h2.62
		c1.176,0,2.317-0.388,3.25-1.104l1.546-1.187c0.166-0.127,0.231-0.345,0.165-0.542c-0.067-0.197-0.252-0.33-0.461-0.33H40.143z"/>
</g>
</svg>
