<?xml version="1.0" encoding="utf-8"?>
<!-- Generator: Adobe Illustrator 16.0.0, SVG Export Plug-In . SVG Version: 6.00 Build 0)  -->
<!DOCTYPE svg PUBLIC "-//W3C//DTD SVG 1.1//EN" "http://www.w3.org/Graphics/SVG/1.1/DTD/svg11.dtd">
<svg version="1.1" id="Layer_1" xmlns="http://www.w3.org/2000/svg" xmlns:xlink="http://www.w3.org/1999/xlink" x="0px" y="0px"
	 width="48px" height="48px" viewBox="0 0 48 48" enable-background="new 0 0 48 48" xml:space="preserve">
<g>
	<path d="M41.431,38.966c0-0.747-0.605-1.352-1.352-1.352H8.224c-0.747,0-1.352,0.605-1.352,1.352v1.616
		c0,0.746,0.605,1.352,1.352,1.352h31.855c0.747,0,1.352-0.605,1.352-1.352V38.966z M26.937,39.972c0,0.298-0.242,0.54-0.54,0.54
		h-5.116c-0.298,0-0.54-0.242-0.54-0.54s0.242-0.54,0.54-0.54h5.116C26.695,39.432,26.937,39.674,26.937,39.972z"/>
	<path d="M13.977,17.435v-5.059h5.036c2.323,0,4.206-1.883,4.206-4.206V4.873c0-2.323-1.883-4.206-4.206-4.206H4.768
		c-2.323,0-4.206,1.883-4.206,4.206v3.297c0,2.323,1.883,4.206,4.206,4.206h5.002v5.059H5.363c-2.652,0-4.801,2.149-4.801,4.801
		V45.39c0,1.073,0.87,1.943,1.943,1.943h43.35c1.073,0,1.943-0.87,1.943-1.943V22.236c0-2.652-2.149-4.801-4.801-4.801H13.977z
		 M30.29,23.05c0-0.747,0.605-1.352,1.352-1.352h2.697c0.747,0,1.352,0.605,1.352,1.352v2.128c0,0.747-0.605,1.352-1.352,1.352
		h-2.697c-0.746,0-1.352-0.605-1.352-1.352V23.05z M30.29,29.473c0-0.746,0.605-1.352,1.352-1.352h2.697
		c0.747,0,1.352,0.605,1.352,1.352v2.128c0,0.747-0.605,1.352-1.352,1.352h-2.697c-0.746,0-1.352-0.605-1.352-1.352V29.473z
		 M23.469,23.05c0-0.747,0.605-1.352,1.352-1.352h2.64c0.747,0,1.352,0.605,1.352,1.352v2.128c0,0.747-0.605,1.352-1.352,1.352
		h-2.64c-0.746,0-1.352-0.605-1.352-1.352V23.05z M23.469,29.473c0-0.746,0.605-1.352,1.352-1.352h2.64
		c0.747,0,1.352,0.605,1.352,1.352v2.128c0,0.747-0.605,1.352-1.352,1.352h-2.64c-0.746,0-1.352-0.605-1.352-1.352V29.473z
		 M4.768,8.169V4.873h14.243v3.297H4.768z M5.848,23.05c0-0.747,0.605-1.352,1.352-1.352h9.744c0.747,0,1.352,0.605,1.352,1.352
		v8.551c0,0.747-0.605,1.352-1.352,1.352H7.2c-0.747,0-1.352-0.605-1.352-1.352V23.05z M42.512,40.807c0,1.188-0.963,2.15-2.15,2.15
		H7.999c-1.188,0-2.151-0.963-2.151-2.15v-2.122c0-1.188,0.963-2.151,2.151-2.151h32.362c1.188,0,2.15,0.963,2.15,2.151V40.807z
		 M42.512,31.601c0,0.747-0.605,1.352-1.352,1.352h-2.64c-0.747,0-1.352-0.605-1.352-1.352v-2.128c0-0.746,0.605-1.352,1.352-1.352
		h2.64c0.746,0,1.352,0.605,1.352,1.352V31.601z M42.512,25.178c0,0.747-0.605,1.352-1.352,1.352h-2.64
		c-0.747,0-1.352-0.605-1.352-1.352V23.05c0-0.747,0.605-1.352,1.352-1.352h2.64c0.746,0,1.352,0.605,1.352,1.352V25.178z"/>
</g>
</svg>
