<?xml version="1.0" encoding="utf-8"?>
<!-- Generator: Adobe Illustrator 16.0.0, SVG Export Plug-In . SVG Version: 6.00 Build 0)  -->
<!DOCTYPE svg PUBLIC "-//W3C//DTD SVG 1.1//EN" "http://www.w3.org/Graphics/SVG/1.1/DTD/svg11.dtd">
<svg version="1.1" id="Layer_1" xmlns="http://www.w3.org/2000/svg" xmlns:xlink="http://www.w3.org/1999/xlink" x="0px" y="0px"
	 width="48px" height="48px" viewBox="0 0 48 48" enable-background="new 0 0 48 48" xml:space="preserve">
<g>
	<path d="M10.411,0.54c-3.59,0-6.5,2.91-6.5,6.5v33.972c0,3.59,2.91,6.5,6.5,6.5h28.07c3.59,0,6.5-2.91,6.5-6.5V7.04
		c0-3.59-2.91-6.5-6.5-6.5H10.411z M18.196,39.237c0,0.882-0.715,1.597-1.597,1.597h-5.268c-0.883,0-1.598-0.715-1.598-1.597v-5.035
		c0-0.882,0.715-1.597,1.598-1.597H16.6c0.882,0,1.597,0.715,1.597,1.597V39.237z M18.196,28.989c0,0.882-0.715,1.597-1.597,1.597
		h-5.268c-0.883,0-1.598-0.715-1.598-1.597v-5.113c0-0.882,0.715-1.597,1.598-1.597H16.6c0.882,0,1.597,0.715,1.597,1.597V28.989z
		 M28.678,39.237c0,0.882-0.715,1.597-1.598,1.597h-5.268c-0.883,0-1.598-0.715-1.598-1.597v-5.035c0-0.882,0.715-1.597,1.598-1.597
		h5.268c0.883,0,1.598,0.715,1.598,1.597V39.237z M28.678,28.989c0,0.882-0.715,1.597-1.598,1.597h-5.268
		c-0.883,0-1.598-0.715-1.598-1.597v-5.113c0-0.882,0.715-1.597,1.598-1.597h5.268c0.883,0,1.598,0.715,1.598,1.597V28.989z
		 M39.159,39.237c0,0.882-0.715,1.597-1.597,1.597h-5.27c-0.882,0-1.597-0.715-1.597-1.597v-5.035c0-0.882,0.715-1.597,1.597-1.597
		h5.27c0.882,0,1.597,0.715,1.597,1.597V39.237z M39.159,28.989c0,0.882-0.715,1.597-1.597,1.597h-5.27
		c-0.882,0-1.597-0.715-1.597-1.597v-5.113c0-0.882,0.715-1.597,1.597-1.597h5.27c0.882,0,1.597,0.715,1.597,1.597V28.989z
		 M39.159,13.85c0,0.882-0.715,1.597-1.597,1.597h-26.23c-0.883,0-1.598-0.715-1.598-1.597V8.814c0-0.882,0.715-1.597,1.598-1.597
		h26.23c0.882,0,1.597,0.715,1.597,1.597V13.85z"/>
</g>
</svg>
