<?xml version="1.0" encoding="utf-8"?>
<!-- Generator: Adobe Illustrator 16.0.0, SVG Export Plug-In . SVG Version: 6.00 Build 0)  -->
<!DOCTYPE svg PUBLIC "-//W3C//DTD SVG 1.1//EN" "http://www.w3.org/Graphics/SVG/1.1/DTD/svg11.dtd">
<svg version="1.1" id="Layer_1" xmlns="http://www.w3.org/2000/svg" xmlns:xlink="http://www.w3.org/1999/xlink" x="0px" y="0px"
	 width="48px" height="48px" viewBox="0 0 48 48" enable-background="new 0 0 48 48" xml:space="preserve">
<g>
	<g>
		<path d="M15.072,35.485c0.371,0.19,0.942,0.381,1.531,0.381c0.635,0,0.971-0.263,0.971-0.662c0-0.381-0.29-0.599-1.025-0.861
			c-1.015-0.354-1.676-0.916-1.676-1.805c0-1.043,0.869-1.841,2.312-1.841c0.688,0,1.196,0.146,1.56,0.309l-0.309,1.115
			c-0.244-0.117-0.68-0.29-1.278-0.29s-0.889,0.271-0.889,0.59c0,0.39,0.345,0.562,1.134,0.86c1.078,0.399,1.587,0.962,1.587,1.823
			c0,1.024-0.79,1.896-2.467,1.896c-0.698,0-1.388-0.182-1.731-0.372L15.072,35.485z"/>
		<path d="M20.895,35.34l-0.435,1.568h-1.433l1.867-6.111h1.814l1.895,6.111h-1.486l-0.472-1.568H20.895z M22.446,34.307
			l-0.381-1.297c-0.109-0.362-0.218-0.816-0.308-1.179h-0.02c-0.09,0.362-0.181,0.825-0.281,1.179l-0.362,1.297H22.446z"/>
		<path d="M24.97,30.797h1.388v4.951h2.43v1.16H24.97V30.797z"/>
		<path d="M32.788,34.325h-2.249v1.45h2.512v1.133h-3.898v-6.111h3.771v1.134h-2.385v1.27h2.249V34.325z"/>
	</g>
	<g>
		<path d="M43.757,7.837c-0.742-0.642-1.691-1.003-2.672-1.003H6.606c-0.996,0-1.959,0.373-2.705,1.033l-2.37,2.101
			c-0.174,0.155-0.235,0.401-0.152,0.619c0.083,0.218,0.291,0.362,0.524,0.362h43.936c0.234,0,0.443-0.146,0.525-0.365
			c0.082-0.219,0.019-0.466-0.158-0.62L43.757,7.837z"/>
		<path d="M36.014,19.582l-1.873,1.364c-1.867,1.374-4.377,1.281-6.244-0.092l-1.827-1.317c-1.146-0.843-2.686-0.794-3.834,0.045
			l-1.873,1.352c-1.867,1.374-4.377,1.268-6.244-0.106l-1.827-1.343c-1.146-0.843-2.686-0.847-3.833-0.007l-3.354,2.511v17.117
			c0,2.238,1.844,4.053,4.066,4.053l29.428-0.009c2.239,0,4.051-1.807,4.051-4.044V21.542l-2.804-2.005
			C38.703,18.694,37.162,18.743,36.014,19.582z M38.632,36.162c0,1.09-0.915,1.974-2.004,1.974H11.294
			c-1.089,0-1.985-0.884-1.985-1.974v-6.585h29.323V36.162z M38.632,27.071H9.309v-1.283c0-1.09,0.895-1.98,1.984-1.98h25.334
			c1.09,0,2.004,0.891,2.004,1.98V27.071z"/>
		<path d="M2.178,18.254c0.176,0.634,0.654,1.141,1.277,1.354c0.624,0.212,1.312,0.104,1.838-0.291l1.972-1.477
			c1.865-1.36,4.368-1.355,6.229,0.012l1.826,1.344c1.149,0.845,2.694,0.844,3.844,0l1.846-1.358
			c1.634-1.202,3.772-1.346,5.533-0.436c0.015,0.008,0.029,0.019,0.044,0.027c0.212,0.112,0.421,0.231,0.62,0.374l2.238,1.607
			c1.101,0.615,2.458,0.547,3.496-0.215l1.847-1.359c1.634-1.203,3.771-1.347,5.532-0.438c0.015,0.009,0.029,0.015,0.045,0.023
			c0.211,0.112,0.42,0.224,0.619,0.367l2.064,1.473c0.553,0.395,1.268,0.48,1.898,0.228c0.63-0.252,1.089-0.808,1.217-1.475
			l0.919-4.78c0.062-0.319-0.023-0.649-0.229-0.899c-0.207-0.25-0.515-0.396-0.839-0.396H1.857c-0.34,0-0.661,0.159-0.867,0.43
			c-0.206,0.271-0.273,0.623-0.183,0.95L2.178,18.254z"/>
	</g>
</g>
</svg>
