<?xml version="1.0" encoding="utf-8"?>
<!-- Generator: Adobe Illustrator 16.0.0, SVG Export Plug-In . SVG Version: 6.00 Build 0)  -->
<!DOCTYPE svg PUBLIC "-//W3C//DTD SVG 1.1//EN" "http://www.w3.org/Graphics/SVG/1.1/DTD/svg11.dtd">
<svg version="1.1" id="Layer_1" xmlns="http://www.w3.org/2000/svg" xmlns:xlink="http://www.w3.org/1999/xlink" x="0px" y="0px"
	 width="48px" height="48px" viewBox="0 0 48 48" enable-background="new 0 0 48 48" xml:space="preserve">
<g>
	<path d="M44.514,12.037L16.243,1.367c-1.248-0.471-2.638-0.397-3.839,0.181L2.286,6.43c-1.791,0.863-2.59,2.981-1.815,4.811
		l4.376,10.331c0.52,1.229,1.524,2.177,2.772,2.648l28.27,10.669c2.517,0.95,5.341-0.283,6.291-2.799l5.187-13.744
		C48.316,15.83,47.03,12.986,44.514,12.037z M15.877,14.313c-0.746,1.977-2.954,2.973-4.929,2.228
		c-1.977-0.747-2.975-2.953-2.229-4.93c0.746-1.977,2.953-2.974,4.93-2.229C15.625,10.129,16.623,12.336,15.877,14.313z"/>
	<path d="M6.723,26.592c-0.602-0.228-1.162-0.538-1.679-0.905l10.35,19.4c1.266,2.373,4.202,3.308,6.575,2.043l12.96-6.916
		c1.048-0.559,1.78-1.463,2.19-2.493c-0.726-0.051-1.439-0.201-2.127-0.461L6.723,26.592z"/>
</g>
</svg>
