<?xml version="1.0" encoding="utf-8"?>
<!-- Generator: Adobe Illustrator 16.0.0, SVG Export Plug-In . SVG Version: 6.00 Build 0)  -->
<!DOCTYPE svg PUBLIC "-//W3C//DTD SVG 1.1//EN" "http://www.w3.org/Graphics/SVG/1.1/DTD/svg11.dtd">
<svg version="1.1" id="Layer_1" xmlns="http://www.w3.org/2000/svg" xmlns:xlink="http://www.w3.org/1999/xlink" x="0px" y="0px"
	 width="48px" height="48px" viewBox="0 0 48 48" enable-background="new 0 0 48 48" xml:space="preserve">
<g>
	<path d="M38.469,8.758c-1.547-1.547-4.054-1.548-5.601,0L28.6,13.027v16.642l15.392-15.393L38.469,8.758z M37.161,14.773
		c-0.528,0.529-1.248,0.744-1.937,0.663c0.08,0.691-0.134,1.408-0.663,1.938c-0.918,0.918-2.41,0.919-3.327,0
		c-0.919-0.918-0.919-2.408,0.001-3.327c0.528-0.529,1.247-0.744,1.937-0.663c-0.082-0.69,0.135-1.409,0.662-1.938
		c0.92-0.918,2.409-0.918,3.327,0C38.081,12.365,38.081,13.854,37.161,14.773z"/>
	<path d="M46.571,16.897L28.6,34.869v3.21c1.099,0.094,2.257-0.268,3.111-1.123L46.389,22.28
		C47.867,20.8,47.916,18.454,46.571,16.897z"/>
	<path d="M26.51,14.548c0-2.287-1.854-4.14-4.14-4.14H4.516c-2.286,0-4.14,1.853-4.14,4.14v21.618c0,2.286,1.854,4.139,4.14,4.139
		H22.37c2.286,0,4.14-1.854,4.14-4.139V14.548z M9.47,34.653c0,0.755-0.612,1.367-1.367,1.367H5.454
		c-0.755,0-1.367-0.612-1.367-1.367V32.16c0-0.755,0.612-1.367,1.367-1.367h2.648c0.755,0,1.367,0.612,1.367,1.367V34.653z
		 M9.47,28.172c0,0.755-0.612,1.367-1.367,1.367H5.454c-0.755,0-1.367-0.612-1.367-1.367v-2.598c0-0.755,0.612-1.367,1.367-1.367
		h2.648c0.755,0,1.367,0.612,1.367,1.367V28.172z M16.161,34.653c0,0.755-0.612,1.367-1.367,1.367h-2.702
		c-0.755,0-1.367-0.612-1.367-1.367V32.16c0-0.755,0.612-1.367,1.367-1.367h2.702c0.755,0,1.367,0.612,1.367,1.367V34.653z
		 M16.161,28.172c0,0.755-0.612,1.367-1.367,1.367h-2.702c-0.755,0-1.367-0.612-1.367-1.367v-2.598c0-0.755,0.612-1.367,1.367-1.367
		h2.702c0.755,0,1.367,0.612,1.367,1.367V28.172z M22.799,34.653c0,0.755-0.612,1.367-1.367,1.367h-2.649
		c-0.755,0-1.367-0.612-1.367-1.367V32.16c0-0.755,0.612-1.367,1.367-1.367h2.649c0.755,0,1.367,0.612,1.367,1.367V34.653z
		 M22.799,28.172c0,0.755-0.612,1.367-1.367,1.367h-2.649c-0.755,0-1.367-0.612-1.367-1.367v-2.598c0-0.755,0.612-1.367,1.367-1.367
		h2.649c0.755,0,1.367,0.612,1.367,1.367V28.172z M22.799,18.502c0,0.755-0.612,1.367-1.367,1.367H5.454
		c-0.755,0-1.367-0.612-1.367-1.367v-2.493c0-0.755,0.612-1.367,1.367-1.367h15.978c0.755,0,1.367,0.612,1.367,1.367V18.502z"/>
</g>
</svg>
