<?xml version="1.0" encoding="utf-8"?>
<!-- Generator: Adobe Illustrator 16.0.0, SVG Export Plug-In . SVG Version: 6.00 Build 0)  -->
<!DOCTYPE svg PUBLIC "-//W3C//DTD SVG 1.1//EN" "http://www.w3.org/Graphics/SVG/1.1/DTD/svg11.dtd">
<svg version="1.1" id="Layer_1" xmlns="http://www.w3.org/2000/svg" xmlns:xlink="http://www.w3.org/1999/xlink" x="0px" y="0px"
	 width="48px" height="48px" viewBox="0 0 48 48" enable-background="new 0 0 48 48" xml:space="preserve">
<g>
	<path d="M17.658,26.604c0,0.684,0.554,1.238,1.238,1.238h24.518c0.684,0,1.238-0.554,1.238-1.238c0-1.597-1.294-2.892-2.891-2.892
		H20.549C18.952,23.712,17.658,25.006,17.658,26.604z"/>
	<path d="M43.081,30.128H13.896v-18.07h5.065c2.335,0,4.264-1.924,4.264-4.259V4.486c0-2.335-1.929-4.228-4.264-4.228H4.655
		C2.32,0.258,0.4,2.151,0.4,4.486V7.8c0,2.335,1.92,4.259,4.255,4.259h5.037v18.07H5.254c-2.666,0-4.854,2.189-4.854,4.854v10.28
		c0,1.05,0.852,1.902,1.902,1.902h43.692c1.05,0,1.902-0.852,1.902-1.902v-10.28C47.896,32.317,45.746,30.128,43.081,30.128z
		 M4.678,7.782v-3.32h14.269v3.32H4.678z M31.081,42.935c0,0.544-0.441,0.985-0.985,0.985h-2.16c-0.544,0-0.985-0.441-0.985-0.985
		v-2.234c0-0.544,0.441-0.985,0.985-0.985h2.16c0.544,0,0.985,0.441,0.985,0.985V42.935z M31.081,36.666
		c0,0.544-0.441,0.985-0.985,0.985h-2.16c-0.544,0-0.985-0.441-0.985-0.985v-2.16c0-0.544,0.441-0.985,0.985-0.985h2.16
		c0.544,0,0.985,0.441,0.985,0.985V36.666z M37.35,42.935c0,0.544-0.441,0.985-0.985,0.985h-2.234c-0.544,0-0.985-0.441-0.985-0.985
		v-2.234c0-0.544,0.441-0.985,0.985-0.985h2.234c0.544,0,0.985,0.441,0.985,0.985V42.935z M37.35,36.666
		c0,0.544-0.441,0.985-0.985,0.985h-2.234c-0.544,0-0.985-0.441-0.985-0.985v-2.16c0-0.544,0.441-0.985,0.985-0.985h2.234
		c0.544,0,0.985,0.441,0.985,0.985V36.666z M43.545,42.935c0,0.544-0.441,0.985-0.985,0.985H40.4c-0.544,0-0.985-0.441-0.985-0.985
		v-2.234c0-0.544,0.441-0.985,0.985-0.985h2.16c0.544,0,0.985,0.441,0.985,0.985V42.935z M43.545,36.666
		c0,0.544-0.441,0.985-0.985,0.985H40.4c-0.544,0-0.985-0.441-0.985-0.985v-2.16c0-0.544,0.441-0.985,0.985-0.985h2.16
		c0.544,0,0.985,0.441,0.985,0.985V36.666z"/>
</g>
</svg>
