<?xml version="1.0" encoding="utf-8"?>
<!-- Generator: Adobe Illustrator 16.0.0, SVG Export Plug-In . SVG Version: 6.00 Build 0)  -->
<!DOCTYPE svg PUBLIC "-//W3C//DTD SVG 1.1//EN" "http://www.w3.org/Graphics/SVG/1.1/DTD/svg11.dtd">
<svg version="1.1" id="Layer_1" xmlns="http://www.w3.org/2000/svg" xmlns:xlink="http://www.w3.org/1999/xlink" x="0px" y="0px"
	 width="48px" height="48px" viewBox="0 0 48 48" enable-background="new 0 0 48 48" xml:space="preserve">
<g>
	<g>
		<g>
			<path d="M19.162,27.286H4.99c-2.596,0-4.676,2.073-4.676,4.668v7.772c0,2.528,2.038,4.577,4.565,4.577l14.299-0.007l0.044,0.002
				l0,0c0.059,0,0.116,0,0.174,0h0.012h-0.006c2.409-0.096,4.329-2.078,4.329-4.51v-7.958C23.731,29.303,21.69,27.286,19.162,27.286
				z M22.148,40.019c0,1.478-1.205,2.883-2.683,2.904l-14.85,0.01l-0.257-0.023c-1.39-0.128-2.461-1.295-2.461-2.691v-8.663
				c0-1.493,1.222-2.686,2.714-2.686h14.824c1.493,0,2.712,1.193,2.712,2.686V40.019z"/>
			<path d="M5.895,41.682V29.697H4.93c-1.099,0-1.998,0.858-1.998,1.956v8.03c0,1.098,0.899,1.999,1.998,1.999H5.895z"/>
			<rect x="14.71" y="29.697" width="2.548" height="11.984"/>
			<rect x="9.614" y="29.697" width="1.857" height="11.984"/>
			<rect x="12.574" y="29.697" width="1.033" height="11.984"/>
			<rect x="6.928" y="29.697" width="1.653" height="11.984"/>
		</g>
		<path d="M18.292,29.697v11.984h0.825c1.097,0,1.998-0.901,1.998-1.999v-8.03c0-1.098-0.901-1.956-1.998-1.956H18.292z"/>
	</g>
	<path d="M45.719,44.092h-0.775c-0.503,0-0.946-0.604-1.104-1.078l-7.808-23.562c2.861-1.08,4.844-3.902,4.844-7.068
		c0-3.71-2.718-6.896-6.39-7.439L15.982,2.185c-1.046-0.155-2.174,0.144-2.976,0.835c-0.8,0.691-1.328,1.687-1.328,2.744v13.099
		c0,1.057,0.528,2.062,1.328,2.753c0.802,0.69,1.896,0.999,2.942,0.844l8.839-1.308c0,0,2.041,6.273,2.021,6.284
		c0.136,0.532,0.128,1.102-0.05,1.655l-0.399,1.225c-0.25,0.771,0.027,1.604,0.69,2.072l1.061,0.752
		c0.94,0.664,1.398,1.788,1.225,2.9c0,0.01-0.004,0.019-0.007,0.027c-0.022,0.135-0.047,0.27-0.091,0.402l-0.462,1.493
		c-0.135,0.704,0.145,1.422,0.74,1.845l1.063,0.751c0.975,0.639,1.157,1.438,1.157,1.438c0.119,0.355,0.068,0.745-0.152,1.048
		c-0.218,0.304-0.565,0.483-0.939,0.483c-0.892,0-1.612,0.872-1.612,1.764s0.726,1.763,1.616,1.763h2.691h11.84h0.538
		c0.892,0,1.614-0.59,1.614-1.481C47.333,44.681,46.61,44.092,45.719,44.092z"/>
	<g>
		<path d="M8.339,19.15c-0.553,0-0.998-0.448-0.998-1.001V6.143c0-0.552,0.445-1,0.998-1c0.554,0,0.998,0.448,0.998,1v12.006
			C9.337,18.702,8.893,19.15,8.339,19.15z"/>
	</g>
	<g>
		<path d="M4.345,22.065c-0.555,0-0.999-0.448-0.999-1.001V3.054c0-0.552,0.444-1,0.999-1c0.553,0,0.998,0.448,0.998,1v18.01
			C5.343,21.617,4.897,22.065,4.345,22.065z"/>
	</g>
</g>
</svg>
