<?xml version="1.0" encoding="utf-8"?>
<!-- Generator: Adobe Illustrator 16.0.0, SVG Export Plug-In . SVG Version: 6.00 Build 0)  -->
<!DOCTYPE svg PUBLIC "-//W3C//DTD SVG 1.1//EN" "http://www.w3.org/Graphics/SVG/1.1/DTD/svg11.dtd">
<svg version="1.1" id="Layer_1" xmlns="http://www.w3.org/2000/svg" xmlns:xlink="http://www.w3.org/1999/xlink" x="0px" y="0px"
	 width="48px" height="48px" viewBox="0 0 48 48" enable-background="new 0 0 48 48" xml:space="preserve">
<g>
	<path d="M11.772,14.332c0.279,0.146,0.62,0.086,0.847-0.131c1.424-1.362,3.916-3.389,6.86-4.23c0.487-0.139,1.01-0.08,1.451,0.171
		c0.44,0.251,0.761,0.667,0.891,1.158l1.236,4.685c0.084,0.322,0.376,0.547,0.71,0.547s0.625-0.225,0.71-0.547l1.236-4.687
		c0.13-0.491,0.451-0.908,0.892-1.158c0.44-0.251,0.963-0.313,1.451-0.174c2.939,0.84,5.427,2.855,6.852,4.217
		c0.229,0.218,0.57,0.266,0.85,0.119c0.279-0.147,0.433-0.456,0.383-0.768c-0.257-1.599-1.024-2.837-2.013-3.81
		C32.181,7.811,29.36,6.95,27.774,6.55C27.551,6.494,27.3,6.45,27.046,6.415c-0.375-0.052-0.701-0.286-0.869-0.625
		c-0.168-0.34-0.156-0.741,0.031-1.07l1.304-2.301c0.233-0.412,0.23-0.916-0.008-1.324s-0.675-0.66-1.148-0.66
		c-0.586,0-1.125,0.32-1.405,0.834l-1.994,3.656c-0.452,0.828-1.27,1.398-2.203,1.532c-0.412,0.06-0.841,0.134-1.18,0.219
		c-1.735,0.437-4.874,1.387-6.746,3.684c-0.71,0.87-1.244,1.928-1.442,3.232C11.338,13.903,11.494,14.187,11.772,14.332z"/>
	<path d="M37.085,11.165c0.306,0.669,0.542,1.368,0.662,2.111c0.161,1.002-0.334,1.992-1.231,2.465
		c-0.883,0.465-2.015,0.303-2.732-0.382c-1.151-1.1-3.486-3.061-6.175-3.829c-0.119-0.012-0.161,0.001-0.199,0.023
		c-0.063,0.035-0.106,0.092-0.124,0.161l-1.236,4.685c-0.271,1.036-1.211,1.76-2.283,1.76s-2.011-0.724-2.284-1.761l-1.235-4.683
		c-0.018-0.068-0.062-0.125-0.124-0.16c-0.036-0.02-0.078-0.031-0.122-0.031c-2.763,0.778-5.104,2.747-6.26,3.853
		c-0.446,0.427-1.03,0.662-1.644,0.662c-0.375,0-0.749-0.091-1.08-0.265c-0.893-0.464-1.393-1.44-1.243-2.425
		c0.075-0.495,0.207-0.968,0.365-1.432C5.675,14.991,2.84,19.802,2.84,26.208c0,11.796,9.563,21.358,21.358,21.358
		c11.797,0,21.36-9.563,21.36-21.358C45.558,19.258,42.227,14.177,37.085,11.165z M7.45,32.689c-0.918,0-1.662-0.744-1.662-1.662
		c0-0.917,0.744-1.662,1.662-1.662c0.917,0,1.662,0.744,1.662,1.662C9.112,31.945,8.368,32.689,7.45,32.689z M10.029,20.225
		c-1.14,1.435-1.619,3.621-1.508,6.587c0.033,0.898-0.667,1.823-1.565,1.823c-0.021,0-0.042,0-0.062,0
		c-0.871,0-1.592-0.825-1.625-1.702c-0.141-3.787,0.562-6.586,2.213-8.664c0.558-0.704,1.582-0.855,2.286-0.295
		C10.47,18.532,10.588,19.522,10.029,20.225z"/>
</g>
</svg>
