<?xml version="1.0" encoding="utf-8"?>
<!-- Generator: Adobe Illustrator 16.0.0, SVG Export Plug-In . SVG Version: 6.00 Build 0)  -->
<!DOCTYPE svg PUBLIC "-//W3C//DTD SVG 1.1//EN" "http://www.w3.org/Graphics/SVG/1.1/DTD/svg11.dtd">
<svg version="1.1" id="Layer_1" xmlns="http://www.w3.org/2000/svg" xmlns:xlink="http://www.w3.org/1999/xlink" x="0px" y="0px"
	 width="48px" height="48px" viewBox="0 0 48 48" enable-background="new 0 0 48 48" xml:space="preserve">
<path d="M43.293,2.516C43.022,1.616,42.15,1,41.212,1H7.999C7.061,1,6.083,1.616,5.813,2.516L3,11.394v33.286
	C3,45.813,4.218,47,5.352,47h38.508C44.993,47,46,45.813,46,44.679V11.394L43.293,2.516z M25.88,37.336
	c-0.868,0.736-2.466,1.826-4.291,1.826c-1.812,0-3.396-1.072-4.27-1.807l-3.492,3.492c-0.396,0.396-0.991,0.441-1.388,0.046
	c-0.396-0.396-0.349-0.99,0.047-1.386l3.487-3.488c-0.733-0.863-1.847-2.473-1.847-4.319c0-1.825,1.09-3.421,1.826-4.291
	c0.163-0.193,0.403-0.305,0.656-0.305c0.254,0,0.494,0.111,0.658,0.305c0.735,0.87,1.825,2.466,1.826,4.292
	c-0.002,2.017-1.33,3.753-2.044,4.539c0.786-0.713,2.522-2.043,4.538-2.045c1.826,0.001,3.423,1.091,4.292,1.827
	c0.193,0.164,0.306,0.404,0.306,0.657C26.186,36.933,26.074,37.173,25.88,37.336z M30.72,32.496
	c-0.869,0.735-2.467,1.826-4.291,1.826c-2.698,0-4.895-2.379-4.986-2.478c-0.099-0.092-2.477-2.287-2.478-4.984
	c0-1.825,1.091-3.421,1.826-4.291c0.163-0.193,0.404-0.305,0.658-0.305c0.252,0,0.493,0.111,0.656,0.304
	c0.736,0.87,1.827,2.465,1.827,4.292c0,2.017-1.331,3.753-2.044,4.54c0.785-0.714,2.521-2.044,4.539-2.045
	c1.825,0,3.422,1.091,4.292,1.827c0.193,0.164,0.306,0.404,0.306,0.657S30.914,32.332,30.72,32.496z M35.561,27.656
	c-0.87,0.735-2.467,1.826-4.293,1.826c-2.697,0-4.893-2.378-4.984-2.478c-0.1-0.092-2.478-2.287-2.478-4.985
	c0-1.825,1.09-3.421,1.826-4.291c0.163-0.193,0.403-0.306,0.656-0.306c0.254,0,0.494,0.111,0.658,0.305
	c0.735,0.87,1.826,2.466,1.827,4.292c-0.001,2.016-1.331,3.753-2.046,4.54c0.787-0.713,2.523-2.043,4.54-2.045
	c1.826,0.001,3.422,1.091,4.292,1.827c0.192,0.163,0.306,0.404,0.306,0.657C35.865,27.251,35.753,27.492,35.561,27.656z
	 M35.3,21.492c-1.291,1.291-3.19,1.649-4.325,1.744c-0.253,0.021-0.503-0.069-0.681-0.249c-0.18-0.179-0.271-0.428-0.25-0.681
	c0.094-1.135,0.453-3.035,1.743-4.326c1.291-1.291,3.191-1.648,4.326-1.744c0.253-0.021,0.502,0.071,0.682,0.25
	c0.178,0.179,0.27,0.428,0.248,0.68C36.947,18.302,36.59,20.202,35.3,21.492z M10.248,8C9.6,8,8.989,7.831,8.602,7.311
	C8.215,6.79,8.096,6.126,8.282,5.505C8.553,4.606,9.381,4,10.319,4h28.628c0.906,0,1.705,0.653,1.965,1.521l0.017,0.082
	c0.187,0.621,0.067,1.172-0.319,1.692C40.222,7.816,39.611,8,38.963,8H10.248z"/>
</svg>
