<?xml version="1.0" encoding="utf-8"?>
<!-- Generator: Adobe Illustrator 16.0.0, SVG Export Plug-In . SVG Version: 6.00 Build 0)  -->
<!DOCTYPE svg PUBLIC "-//W3C//DTD SVG 1.1//EN" "http://www.w3.org/Graphics/SVG/1.1/DTD/svg11.dtd">
<svg version="1.1" id="Layer_1" xmlns="http://www.w3.org/2000/svg" xmlns:xlink="http://www.w3.org/1999/xlink" x="0px" y="0px"
	 width="48px" height="48px" viewBox="0 0 48 48" enable-background="new 0 0 48 48" xml:space="preserve">
<g>
	<path d="M23.099,13.064c0.221,0.261,0.546,0.412,0.888,0.412c0.343,0,0.668-0.149,0.89-0.411c0.994-1.175,2.468-3.333,2.468-5.802
		c0-2.467-1.473-4.624-2.467-5.8c-0.222-0.261-0.546-0.412-0.889-0.412c-0.342,0-0.668,0.149-0.889,0.411
		c-0.995,1.175-2.468,3.333-2.469,5.801C20.632,9.731,22.104,11.889,23.099,13.064z"/>
	<path d="M23.995,21.151c0.182,0.008,4.554,0.182,7.133-2.396c1.744-1.745,2.229-4.313,2.357-5.847
		c0.028-0.341-0.095-0.678-0.337-0.92c-0.242-0.242-0.579-0.365-0.921-0.336c-1.534,0.128-4.103,0.612-5.849,2.356
		c-1.926,1.928-2.314,4.86-2.384,6.293c-0.069-1.433-0.458-4.365-2.385-6.293c-1.746-1.745-4.314-2.229-5.849-2.356
		c-0.341-0.029-0.678,0.095-0.92,0.337c-0.242,0.243-0.364,0.579-0.336,0.92c0.128,1.534,0.612,4.102,2.356,5.846
		C19.441,21.333,23.812,21.159,23.995,21.151z"/>
	<path d="M26.379,23.26c-1.926,1.928-2.314,4.859-2.384,6.293c-0.069-1.434-0.458-4.365-2.385-6.293
		c-1.746-1.745-4.314-2.229-5.849-2.356c-0.341-0.028-0.678,0.095-0.92,0.337s-0.364,0.579-0.336,0.92
		c0.128,1.534,0.612,4.102,2.356,5.846c2.579,2.579,6.949,2.404,7.133,2.396c0.182,0.008,4.554,0.183,7.133-2.396
		c1.745-1.745,2.229-4.313,2.357-5.848c0.028-0.341-0.095-0.678-0.337-0.919c-0.242-0.242-0.579-0.365-0.921-0.336
		C30.693,21.031,28.125,21.515,26.379,23.26z"/>
	<path d="M26.379,32.513c-1.926,1.928-2.314,4.859-2.384,6.293c-0.069-1.434-0.458-4.365-2.385-6.293
		c-1.745-1.745-4.313-2.229-5.847-2.356c-0.342-0.028-0.678,0.095-0.92,0.336c-0.242,0.242-0.366,0.579-0.338,0.919
		c0.128,1.534,0.611,4.103,2.356,5.847c1.764,1.765,4.368,2.24,5.895,2.362v6.668c0,0.756,0.524,1.369,1.281,1.369
		c0.756,0,1.281-0.613,1.281-1.369v-6.675c1.537-0.132,4.076-0.622,5.809-2.354c1.744-1.744,2.229-4.313,2.357-5.847
		c0.028-0.341-0.095-0.678-0.337-0.92c-0.242-0.242-0.579-0.365-0.921-0.336C30.693,30.284,28.125,30.768,26.379,32.513z"/>
</g>
</svg>
