<?xml version="1.0" encoding="utf-8"?>
<!-- Generator: Adobe Illustrator 16.0.0, SVG Export Plug-In . SVG Version: 6.00 Build 0)  -->
<!DOCTYPE svg PUBLIC "-//W3C//DTD SVG 1.1//EN" "http://www.w3.org/Graphics/SVG/1.1/DTD/svg11.dtd">
<svg version="1.1" id="Layer_1" xmlns="http://www.w3.org/2000/svg" xmlns:xlink="http://www.w3.org/1999/xlink" x="0px" y="0px"
	 width="48px" height="48px" viewBox="0 0 48 48" enable-background="new 0 0 48 48" xml:space="preserve">
<g>
	<path d="M29.789,17.987c-1.206-0.973-1.995-2.461-1.995-4.129V4.313c0-0.401-0.325-0.726-0.727-0.726h-3.81
		c-0.401,0-0.726,0.325-0.726,0.726v9.545c0,1.668-0.79,3.157-1.994,4.129c-2.104,1.697-3.344,4.256-3.344,6.958v18.723
		c0,2.075,1.69,3.747,3.765,3.747h8.393c2.075,0,3.78-1.671,3.78-3.747V24.945C33.131,22.245,31.89,19.682,29.789,17.987z
		 M25.154,7.614c0.797,0,1.444,1.038,1.444,2.318s-0.646,2.318-1.444,2.318s-1.444-1.038-1.444-2.318S24.356,7.614,25.154,7.614z
		 M29.711,39.296h-9.097V28.844c0-2.016,1.647-3.682,3.664-3.682h1.776c2.017,0,3.656,1.666,3.656,3.682V39.296z"/>
	<path d="M27.794,1.766c0-0.676-0.548-1.224-1.224-1.224h-2.814c-0.676,0-1.224,0.548-1.224,1.224v0.379
		c0,0.401,0.325,0.727,0.726,0.727h3.81c0.401,0,0.727-0.325,0.727-0.727V1.766z"/>
</g>
</svg>
